<?xml version="1.0" standalone="no"?>
<!DOCTYPE svg PUBLIC "-//W3C//DTD SVG 1.1//EN" "http://www.w3.org/Graphics/SVG/1.1/DTD/svg11.dtd" >
<svg>
<metadata>
Created by FontForge 20120731 at Tue May 31 20:28:16 2016
 By www
Copyright (c) 2011 By Svetoslav Simov (c) Fontfabric, LLC. All rights reserved.
</metadata>
<defs>
<font id="CodeProW01-LightLowercase" horiz-adv-x="619" >
  <font-face 
    font-family="CodeProW01-LightLowercase"
    font-weight="300"
    font-stretch="normal"
    units-per-em="1000"
    panose-1="2 0 0 0 0 0 0 0 0 0"
    ascent="750"
    descent="-250"
    x-height="541"
    cap-height="700"
    bbox="-23 -204 1086 840"
    underline-thickness="50"
    underline-position="-100"
    unicode-range="U+0002-2122"
  />
<missing-glyph horiz-adv-x="271" 
 />
    <glyph glyph-name=".notdef" horiz-adv-x="271" 
 />
    <glyph glyph-name=".null" horiz-adv-x="0" 
 />
    <glyph glyph-name="uni000D" unicode="&#xd;" horiz-adv-x="271" 
 />
    <glyph glyph-name="uni0002" horiz-adv-x="0" 
 />
    <glyph glyph-name="uni0009" unicode="&#x9;" horiz-adv-x="271" 
 />
    <glyph glyph-name="uni000A" unicode="&#xa;" horiz-adv-x="0" 
 />
    <glyph glyph-name="space" unicode=" " horiz-adv-x="271" 
 />
    <glyph glyph-name="exclam" unicode="!" horiz-adv-x="126" 
d="M74 701v-613h-24v613h24zM62 37q8 0 13.5 -6t5.5 -14q0 -7 -5.5 -13t-13.5 -6t-14 6t-6 13q0 8 6 14t14 6z" />
    <glyph glyph-name="quotedbl" unicode="&#x22;" horiz-adv-x="164" 
d="M58 699v-202h-22v202h22zM133 699v-202h-22v202h22z" />
    <glyph glyph-name="numbersign" unicode="#" horiz-adv-x="472" 
d="M454 454h-97l-33 -202h95v-17h-98l-38 -235h-19l39 235h-182l-38 -235h-20l39 235h-101v17h104l32 202h-102v16h105l38 231h20l-38 -231h181l38 231h19l-38 -231h94v-16zM157 454l-33 -202h182l32 202h-181z" />
    <glyph glyph-name="dollar" unicode="$" horiz-adv-x="529" 
d="M252 764h21v-58q37 -1 73 -11t65 -29t49.5 -47.5t27.5 -65.5l1 -11l-21 -4l-1 11q-9 43 -37 74q-29 30 -71 45.5t-86 16.5v-324q39 -4 76.5 -9.5t69 -19t54 -37.5t31.5 -65q2 -11 3.5 -20.5t1.5 -20.5q0 -45 -20.5 -80.5t-54 -60.5t-76 -39t-85.5 -16v-64h-21v64
q-38 1 -77 12.5t-71.5 33t-55 53t-26.5 73.5l-1 10l22 2l1 -10q5 -35 25.5 -63t50 -47.5t64 -30.5t68.5 -12v327q-40 4 -78 12t-68.5 25.5t-51.5 47t-26 76.5q-2 30 6.5 61.5t27.5 56.5q31 40 82.5 62t107.5 24v58zM483 225q-8 35 -28.5 55.5t-49 32.5t-62.5 17t-70 9v-325
q40 1 78.5 13.5t68.5 34.5t48.5 54t18.5 73q0 19 -4 36zM79 607q-18 -22 -24.5 -49.5t-4.5 -54.5q4 -42 22 -67.5t46 -40.5t62.5 -22t71.5 -11v323q-48 -2 -96 -21t-77 -57z" />
    <glyph glyph-name="percent" unicode="%" horiz-adv-x="635" 
d="M310 560q0 -30 -11.5 -56t-31 -45.5t-45.5 -31t-55 -11.5t-55 11t-45.5 30.5t-31 45.5t-11.5 57t11.5 57.5t31 46t45.5 30.5t55 11t55 -11t45.5 -30.5t31 -46t11.5 -57.5zM546 716l-438 -727h-24l439 727h23zM290 560q0 27 -9 50t-25.5 40t-39 26.5t-49.5 9.5
q-26 0 -48.5 -9.5t-39 -26.5t-25.5 -40t-9 -50q0 -26 9 -48.5t25.5 -39.5t39 -27t48.5 -10q27 0 49.5 10t39 27t25.5 39.5t9 48.5zM607 138q0 -30 -11.5 -56t-31 -45.5t-45.5 -31t-55 -11.5t-55 11t-45.5 30.5t-31 45.5t-11.5 57t11.5 57.5t31 46t45.5 30.5t55 11t55 -11
t45.5 -30.5t31 -46t11.5 -57.5zM587 138q0 27 -9 50t-25.5 40t-39 26.5t-49.5 9.5q-26 0 -48.5 -9.5t-39 -26.5t-25.5 -40t-9 -50q0 -26 9 -48.5t25.5 -39.5t39 -27t48.5 -10q27 0 49.5 10t39 27t25.5 39.5t9 48.5z" />
    <glyph glyph-name="ampersand" unicode="&#x26;" horiz-adv-x="542" 
d="M409 158l61 100l16 -9l-64 -105l115 -135h-26l-102 116q-46 -60 -91.5 -95.5t-104.5 -35.5q-36 0 -70 12.5t-60.5 36t-42 57t-15.5 74.5q0 56 38.5 115.5t120.5 100.5q-15 18 -30.5 37t-27.5 40t-20 43.5t-8 46.5q0 39 12.5 67.5t32.5 46.5t46 27t53 9q25 0 50 -8.5
t44.5 -26t32 -44t12.5 -61.5q0 -32 -14.5 -59t-38 -49.5t-53 -41.5t-58.5 -35zM198 375q-32 -14 -59.5 -36.5t-48 -49t-32.5 -56.5t-12 -59q0 -38 14 -67.5t38 -50t54.5 -31t63.5 -10.5q27 0 52 11t48 28.5t43.5 40t37.5 45.5zM242 687q-57 0 -90 -35.5t-33 -93.5
q0 -21 8 -43t20 -43t27.5 -41t30.5 -36q24 12 51 28.5t50 37.5t38.5 47t15.5 58q0 59 -34 90t-84 31z" />
    <glyph glyph-name="quotesingle" unicode="'" horiz-adv-x="117" 
d="M68 699v-201h-21v201h21z" />
    <glyph glyph-name="parenleft" unicode="(" horiz-adv-x="303" 
d="M71 352q0 -63 16 -127t46 -123.5t72.5 -110t94.5 -84.5v-23q-56 34 -102.5 85.5t-79.5 113t-51.5 130.5t-18.5 139q0 72 17.5 141t50 129.5t77.5 109t100 80.5v-21q-53 -35 -94 -85t-69.5 -108.5t-43.5 -121.5t-15 -124z" />
    <glyph glyph-name="parenright" unicode=")" horiz-adv-x="317" 
d="M239 352q0 60 -15 123t-43.5 121.5t-69.5 109t-94 85.5v21q55 -32 100 -82t77 -111t50 -129.5t18 -137.5q0 -70 -18.5 -139t-51.5 -130.5t-79.5 -113t-102.5 -85.5v23q52 34 94.5 84.5t72.5 110t46 123.5t16 127z" />
    <glyph glyph-name="asterisk" unicode="*" horiz-adv-x="352" 
d="M185 570l96 -129l-14 -10l-95 129l-92 -128l-15 9l94 129l-138 45l5 16l138 -45v152h17v-153l143 47l5 -16z" />
    <glyph glyph-name="plus" unicode="+" horiz-adv-x="482" 
d="M31 373h196v199h21v-199h195v-20h-195v-206h-21v206h-196v20z" />
    <glyph glyph-name="comma" unicode="," horiz-adv-x="105" 
d="M-6 -95l48 132h31l-56 -132h-23z" />
    <glyph glyph-name="hyphen" unicode="-" horiz-adv-x="344" 
d="M42 361h246v-22h-246v22z" />
    <glyph glyph-name="period" unicode="." horiz-adv-x="110" 
d="M56 44q9 0 16 -7t7 -17q0 -8 -7 -15t-16 -7t-16.5 5.5t-7.5 16.5q0 12 7.5 18t16.5 6z" />
    <glyph glyph-name="slash" unicode="/" horiz-adv-x="337" 
d="M37 -54h-22l283 820h21z" />
    <glyph glyph-name="zero" unicode="0" horiz-adv-x="592" 
d="M294 691q-59 0 -103.5 -29t-74 -76.5t-44 -109t-14.5 -126.5q0 -64 14.5 -124.5t44 -108t74 -76t103.5 -28.5t103.5 28.5t74 76t44.5 108t15 124.5q0 63 -15 124t-44.5 109.5t-74 78t-103.5 29.5zM294 -9q-65 0 -113 30.5t-80 80.5t-48 114.5t-16 133.5t16 134.5
t48 116.5t80 81.5t113 30.5q64 0 112 -30.5t80.5 -81.5t48.5 -116.5t16 -134.5t-16 -133.5t-48.5 -114.5t-80.5 -80.5t-112 -30.5z" />
    <glyph glyph-name="one" unicode="1" horiz-adv-x="277" 
d="M31 449l-15 11l172 240h21v-700h-22v663z" />
    <glyph glyph-name="two" unicode="2" horiz-adv-x="549" 
d="M38 483q0 44 15 83.5t44.5 69t73.5 47t103 17.5q57 0 101 -17t74 -45.5t45 -66t14 -78.5q-1 -57 -28 -104.5t-69 -82.5l-335 -285h434v-21h-470v19l355 302q36 32 62.5 75t28.5 94q1 37 -12.5 71t-40.5 60t-67 42t-92 16q-54 0 -94 -16t-66.5 -43t-40 -62.5t-13.5 -74.5
h-22z" />
    <glyph glyph-name="three" unicode="3" horiz-adv-x="546" 
d="M342 363q78 -16 123.5 -62t45.5 -119q0 -39 -16 -73.5t-47.5 -61t-77.5 -42t-107 -15.5q-54 0 -94.5 12.5t-68.5 34.5t-44 52t-21 64l20 3q4 -29 18.5 -55.5t40 -46.5t62.5 -31.5t87 -11.5q57 0 99 14.5t70 38.5t42 54.5t14 62.5q0 33 -14 63.5t-41.5 54.5t-70 38.5
t-99.5 14.5h-49v20h49q49 0 85 13t59 35t34.5 50.5t11.5 59.5q0 48 -25 81t-63 52t-83 23t-86.5 -7t-73.5 -37t-42 -67l-20 4q12 48 47 78t81 42.5t96.5 8t92.5 -26t69.5 -59.5t27.5 -93q0 -20 -5.5 -45t-20 -48.5t-40.5 -43t-66 -28.5v-1z" />
    <glyph glyph-name="four" unicode="4" horiz-adv-x="544" 
d="M424 700h19v-500h65v-21h-65v-179h-20v179h-395v19zM423 200v451l1 16l-6 -11l-362 -456h367z" />
    <glyph glyph-name="five" unicode="5" horiz-adv-x="550" 
d="M462 680h-386v-271q41 20 86 31.5t95 11.5q61 0 114 -22q68 -29 102 -84.5t35 -118.5q0 -42 -15 -82.5t-45 -73t-75.5 -52t-106.5 -19.5q-47 0 -84 12t-65.5 32t-48 47.5t-30.5 59.5l20 7q20 -58 71 -97t137 -39q55 0 96.5 17.5t69 46.5t41 66t13.5 75q0 27 -8 54t-23 51
t-37.5 44t-50.5 33q-26 11 -53.5 16.5t-53.5 5.5q-48 0 -94 -12.5t-90 -32.5l-21 10v304h407v-20z" />
    <glyph glyph-name="six" unicode="6" horiz-adv-x="564" 
d="M283 421q-55 0 -96.5 -17.5t-69 -46t-41.5 -65.5t-14 -75t14 -74.5t41.5 -65t69 -46t96.5 -17.5t96.5 17.5t69.5 46t41.5 65t13.5 74.5t-13.5 75t-41.5 65.5t-69.5 46t-96.5 17.5zM325 700h26l-184 -268l-27 -33q6 5 12 9l12 8q25 13 53 20t66 7q61 0 106.5 -19.5
t75.5 -51.5t45 -72.5t15 -82.5t-15 -82.5t-45 -72t-75.5 -51t-106.5 -19.5q-60 0 -105.5 19.5t-76 51t-45.5 72t-15 82.5q0 35 10 68.5t31 62.5z" />
    <glyph glyph-name="seven" unicode="7" horiz-adv-x="534" 
d="M499 700v-20l-371 -680h-26l370 679h-443v21h470z" />
    <glyph glyph-name="eight" unicode="8" horiz-adv-x="558" 
d="M277 12q55 0 96.5 14.5t69.5 38.5t41.5 55t13.5 63t-13.5 63t-41.5 55.5t-69.5 39.5t-96.5 15t-96.5 -15t-69 -39.5t-41.5 -55.5t-14 -63t14 -63t41.5 -55t69 -38.5t96.5 -14.5zM277 692q-34 0 -67.5 -9.5t-60 -28.5t-43 -49t-16.5 -70q0 -30 11.5 -58t34.5 -50.5
t58.5 -36t82.5 -13.5q48 0 83 13.5t58 36t34.5 51t11.5 58.5q0 40 -16.5 69.5t-43.5 49t-60.5 28.5t-66.5 9zM342 367l20 -2q41 -11 71 -29t49.5 -42t28.5 -52t9 -58q0 -36 -15 -71t-45.5 -62t-76 -43.5t-106.5 -16.5q-60 0 -105.5 16.5t-76 43.5t-45.5 62t-15 71
q0 29 10 57.5t30 53t49 43.5t68 29l19 2l-33 7q-55 23 -82 67t-27 93q0 45 19 78.5t48.5 55t66.5 32.5t74 11q52 0 91 -15t65.5 -40t39.5 -57t13 -66q0 -53 -31 -99t-94 -66z" />
    <glyph glyph-name="nine" unicode="9" horiz-adv-x="560" 
d="M281 280q55 0 97 17.5t69.5 46t41.5 65t14 74.5t-14 75t-41.5 66t-69.5 46.5t-97 17.5t-96.5 -17.5t-69 -46.5t-41.5 -66t-14 -75t14 -74.5t41.5 -65t69 -46t96.5 -17.5zM240 0h-25l183 269l27 33q-6 -5 -12 -9l-12 -8q-25 -13 -53.5 -20t-66.5 -7q-60 0 -105.5 19.5
t-76 51t-45.5 72t-15 82.5q0 43 15 83.5t45.5 72.5t76 51.5t105.5 19.5q61 0 106.5 -19.5t76 -51t45.5 -72t15 -83.5q0 -34 -10 -67.5t-31 -62.5z" />
    <glyph glyph-name="colon" unicode=":" horiz-adv-x="120" 
d="M59 44q9 0 16 -7t7 -17q0 -8 -7 -15t-16 -7t-16.5 5.5t-7.5 16.5q0 12 7.5 18t16.5 6zM60 365q9 0 16 -7t7 -17q0 -8 -7 -15t-16 -7t-16.5 5.5t-7.5 16.5q0 12 7.5 18t16.5 6z" />
    <glyph glyph-name="semicolon" unicode=";" horiz-adv-x="120" 
d="M1 -104l47 130h32l-55 -130h-24zM60 365q9 0 16 -7t7 -17q0 -8 -7 -15t-16 -7t-16.5 5.5t-7.5 16.5q0 12 7.5 18t16.5 6z" />
    <glyph glyph-name="less" unicode="&#x3c;" horiz-adv-x="417" 
d="M387 518l-339 -179l339 -175v-25l-366 190v19l366 195v-25z" />
    <glyph glyph-name="equal" unicode="=" horiz-adv-x="483" 
d="M37 216h397v-20h-397v20zM37 385h397v-21h-397v21z" />
    <glyph glyph-name="greater" unicode="&#x3e;" horiz-adv-x="414" 
d="M28 541l366 -195v-19l-366 -190v25l340 174l-340 180v25z" />
    <glyph glyph-name="question" unicode="?" horiz-adv-x="497" 
d="M241 88h-22v117q0 27 9.5 46t25 33t35.5 25.5t41 22.5q20 11 39.5 25t35 33t25.5 44.5t11 60.5q1 37 -12.5 71t-40.5 60t-67 42t-92 16q-74 0 -122.5 -32.5t-71.5 -82.5l-19 11q26 56 78.5 91.5t134.5 35.5q57 0 101 -17.5t74 -47t45 -67.5t14 -79t-12.5 -70t-30 -51
t-41.5 -37.5t-45 -27.5q-19 -10 -36 -19.5t-29.5 -21.5t-20 -27.5t-7.5 -37.5v-116zM230 37q8 0 13.5 -6t5.5 -14q0 -7 -5.5 -13t-13.5 -6t-14 6t-6 13q0 8 6 14t14 6z" />
    <glyph glyph-name="at" unicode="@" horiz-adv-x="745" 
d="M650 569q-44 57 -111.5 86.5t-140.5 29.5q-79 0 -141.5 -30t-106.5 -78.5t-68 -111t-25 -127.5q-1 -62 16.5 -119.5t55 -102t97.5 -71.5t145 -27q20 0 45 4.5t53 15.5l7 -19q-30 -12 -54.5 -16t-50.5 -4q-89 0 -153 28t-105 75t-60.5 108t-18.5 128q1 68 26 134
t71.5 118.5t113 84.5t150.5 32q69 0 127.5 -21.5t101.5 -59.5t67 -90t25 -114q1 -51 -15 -102t-44 -91t-67 -63t-85 -18q-22 2 -36.5 19.5t-9.5 55.5h-3q-21 -33 -59 -55.5t-79 -20.5q-24 1 -45.5 12.5t-38.5 31.5t-27 46.5t-10 57.5q0 51 14 97t41 80t66.5 54t90.5 20
q10 0 28 -3.5t35 -14t31 -29.5t17 -50l23 64h20l-77 -253q-4 -9 -6.5 -21t-2.5 -24q0 -20 10.5 -32.5t36.5 -12.5q37 0 68 22t54 58t36 81t13 91q0 88 -50 152zM219 295q0 -24 7.5 -46t21 -39.5t32.5 -28t42 -10.5q37 0 70.5 17.5t63.5 62.5q15 37 28 79t22 84
q0 51 -26 80.5t-75 29.5q-48 1 -83 -19.5t-58 -53t-34 -74t-11 -82.5z" />
    <glyph glyph-name="A" unicode="A" horiz-adv-x="624" 
d="M147 254h329q-42 109 -82 212t-82 212zM485 233h-347l-94 -233h-24l282 710h21l281 -710h-24z" />
    <glyph glyph-name="B" unicode="B" horiz-adv-x="607" 
d="M87 385h261q50 0 82 25.5t47 60.5q5 14 8 29.5t3 29.5q0 31 -11 61q-15 35 -47 60.5t-82 25.5h-261v-292zM348 699q58 0 95 -29t54 -71q12 -32 12 -68q0 -37 -12 -68q-11 -26 -29 -48t-44 -36q34 -8 59.5 -26t42.5 -43.5t25.5 -56t8.5 -61.5q0 -36 -11.5 -70.5
t-34.5 -61.5t-57.5 -43.5t-80.5 -16.5h-311v699h283zM87 21h289q40 0 71 14.5t51 38.5t30.5 54.5t10.5 62.5t-10.5 63t-30.5 55t-51 39t-71 15h-289v-342z" />
    <glyph glyph-name="C" unicode="C" horiz-adv-x="744" 
d="M674 490q-12 29 -29 53t-37 45q-43 45 -101.5 70.5t-125.5 25.5q-66 0 -124.5 -25.5t-102.5 -70.5q-43 -45 -68.5 -105t-25.5 -134q0 -75 25.5 -133t68.5 -102q44 -45 102.5 -71t124.5 -26q67 0 125.5 26t101.5 71q20 20 37 44t29 53h24q-27 -64 -75 -113
q-47 -48 -108.5 -75.5t-133.5 -27.5t-133 27.5t-109 75.5q-46 48 -73.5 108.5t-27.5 142.5q0 79 27.5 142.5t73.5 111.5q48 48 109 75.5t133 27.5t133.5 -27.5t108.5 -75.5q23 -24 42 -52.5t33 -60.5h-24z" />
    <glyph glyph-name="D" unicode="D" horiz-adv-x="691" 
d="M301 21q81 0 141.5 28t101 74t60.5 105t20 121t-20 121t-60.5 105.5t-101 75t-141.5 28.5h-216v-658h216zM301 700q86 0 150.5 -30t107.5 -79.5t64.5 -112.5t21.5 -129t-21.5 -128.5t-64.5 -111.5t-107.5 -79t-150.5 -30h-237v700h237z" />
    <glyph glyph-name="E" unicode="E" horiz-adv-x="501" 
d="M86 21h369v-21h-390v700h388v-21h-367v-318h359v-22h-359v-318z" />
    <glyph glyph-name="F" unicode="F" horiz-adv-x="481" 
d="M85 0h-20v700h379v-21h-359v-318h318v-22h-318v-339z" />
    <glyph glyph-name="G" unicode="G" horiz-adv-x="765" 
d="M681 486q-18 46 -48 83t-68.5 62.5t-83.5 39t-93 13.5q-66 0 -124.5 -27t-103.5 -72q-41 -45 -67 -106t-26 -130q0 -68 26 -129.5t67 -106.5q45 -45 103.5 -72t124.5 -27q51 0 102 19t93.5 52.5t73 79.5t40.5 100h-306v22h333q-3 -42 -17 -74q-18 -47 -53 -87.5
t-78.5 -70.5t-92.5 -47t-95 -17q-72 0 -133.5 28.5t-109.5 77.5q-46 49 -73 113t-27 139q0 74 27.5 138t72.5 114q48 49 109.5 77t133.5 28q52 0 101 -15.5t91 -44t74 -69t50 -91.5h-23z" />
    <glyph glyph-name="H" unicode="H" horiz-adv-x="603" 
d="M86 365h429v335h22v-700h-22v344h-429v-344h-21v700h21v-335z" />
    <glyph glyph-name="I" unicode="I" horiz-adv-x="381" 
d="M348 681h-148v-661h148v-20h-316v20h147v661h-147v19h316v-19z" />
    <glyph glyph-name="J" unicode="J" horiz-adv-x="435" 
d="M372 296q0 -76 -27 -132t-73.5 -92.5t-109 -54t-134.5 -17.5v22q67 0 126 16t103 49.5t69 85.5t25 123v383h-214v20h235v-403z" />
    <glyph glyph-name="K" unicode="K" horiz-adv-x="535" 
d="M86 700v-700h-22v700h22zM104 359l372 341h35l-386 -349l396 -351h-35l-382 341v18z" />
    <glyph glyph-name="L" unicode="L" horiz-adv-x="495" 
d="M87 23h372v-23h-394v700h22v-677z" />
    <glyph glyph-name="M" unicode="M" horiz-adv-x="739" 
d="M86 0h-21v700h20l286 -423l288 423h20v-700h-21v665l-279 -414h-14l-279 413v-664z" />
    <glyph glyph-name="N" unicode="N" horiz-adv-x="622" 
d="M65 0v700h18l457 -660v660h21v-700h-20l-454 656v-656h-22z" />
    <glyph glyph-name="O" unicode="O" horiz-adv-x="798" 
d="M732 350q0 70 -26.5 131t-71.5 107t-106.5 73t-131.5 27q-69 0 -130 -27t-107 -73q-45 -46 -71.5 -107t-26.5 -131t26.5 -131t71.5 -107q46 -46 107 -73t130 -27q70 0 131.5 27t106.5 73t71.5 107t26.5 131zM39 350q0 75 29 139.5t77 114.5t112.5 78t138.5 28
q75 0 140 -28t113 -78t76.5 -114.5t28.5 -139.5t-28.5 -139.5t-76.5 -114.5t-113 -78t-140 -28q-74 0 -138.5 28t-112.5 78t-77 114.5t-29 139.5z" />
    <glyph glyph-name="P" unicode="P" horiz-adv-x="561" 
d="M308 700q52 0 92 -19t66 -49.5t39.5 -70t13.5 -79.5q0 -41 -13.5 -80.5t-39.5 -70t-66 -49t-92 -18.5h-221v-264h-22v700h243zM308 285q48 0 83.5 17t59 44.5t35.5 62.5t12 72t-12 72t-35.5 63t-59 45t-83.5 17h-221v-393h221z" />
    <glyph glyph-name="Q" unicode="Q" horiz-adv-x="806" 
d="M737 350q0 70 -27 131t-72 107t-106 73t-132 27q-69 0 -130 -27t-107 -73q-45 -46 -71.5 -107t-26.5 -131t26.5 -131t71.5 -107q46 -46 107 -73t130 -27q64 0 121 23.5t101 61.5l-213 189h33l198 -172q45 46 71 106.5t26 129.5zM766 0h-34l-94 82q-48 -44 -108 -68
t-130 -24q-74 0 -138.5 28t-112.5 78t-77 114.5t-29 139.5t29 139.5t77 114.5t112.5 78t138.5 28q75 0 140 -28t113 -78t76.5 -114.5t28.5 -139.5q0 -74 -27.5 -138t-75.5 -114z" />
    <glyph glyph-name="R" unicode="R" horiz-adv-x="567" 
d="M86 0h-21v700h243q53 0 92.5 -18t66 -47t39.5 -66t13 -75q0 -39 -13 -75.5t-39.5 -65.5t-66 -46.5t-92.5 -17.5h-105l320 -289h-32l-321 291v18h138q48 0 83.5 16t59 42t35.5 59t12 68q0 34 -12 67.5t-35.5 59t-59 41.5t-83.5 16h-222v-678z" />
    <glyph glyph-name="S" unicode="S" horiz-adv-x="589" 
d="M498 550q-5 20 -14 40t-23 35q-31 32 -78.5 47.5t-92.5 14.5q-49 -1 -99 -19.5t-81 -58.5q-18 -23 -24.5 -49.5t-4.5 -54.5q3 -44 24 -70t52.5 -41t69.5 -21.5t76 -10.5q37 -4 75 -10t70.5 -19.5t55.5 -37.5t32 -64q5 -23 5 -43q0 -47 -22 -83t-57 -61t-79.5 -38
t-89.5 -13q-38 0 -78.5 11t-74.5 32.5t-58 54t-28 75.5l-1 9l22 2l1 -9q5 -38 26.5 -66.5t52.5 -48t67.5 -29.5t71.5 -10q40 0 80.5 11.5t72 34t51.5 55t20 74.5q0 8 -1 17.5t-3 19.5q-8 34 -29 55t-51 33t-65 17.5t-70 9.5q-40 4 -81 11t-75 23.5t-56.5 47t-26.5 81.5
q-2 29 6 60.5t28 57.5q33 43 87.5 64.5t114.5 21.5q39 0 76 -9.5t67 -28.5t51.5 -47.5t28.5 -67.5l2 -12l-21 -3z" />
    <glyph glyph-name="T" unicode="T" horiz-adv-x="561" 
d="M267 0v678h-240v22h501v-22h-240v-678h-21z" />
    <glyph glyph-name="U" unicode="U" horiz-adv-x="624" 
d="M314 -8q-44 0 -87.5 12.5t-79 37.5t-57.5 62.5t-22 86.5v509h22v-510q0 -44 20 -77t52.5 -55t72.5 -33t79 -11t79 11t72.5 33t52.5 55t20 78v509h22v-510q0 -49 -22.5 -86t-57.5 -62t-79 -37.5t-87 -12.5z" />
    <glyph glyph-name="V" unicode="V" horiz-adv-x="630" 
d="M582 699h24l-281 -710h-21l-282 710h24l268 -678z" />
    <glyph glyph-name="W" unicode="W" horiz-adv-x="891" 
d="M442 471q-42 -121 -84 -239.5t-84 -238.5h-18l-234 706h22l221 -668l164 466h26l165 -465l222 667h22l-234 -706h-18z" />
    <glyph glyph-name="X" unicode="X" horiz-adv-x="582" 
d="M51 700l240 -330l241 330h25l-254 -351l254 -349h-25l-241 330l-240 -330h-26l254 349l-254 351h26z" />
    <glyph glyph-name="Y" unicode="Y" horiz-adv-x="579" 
d="M46 699l242 -387l242 387h27l-258 -411v-288h-22v288l-258 411h27z" />
    <glyph glyph-name="Z" unicode="Z" horiz-adv-x="593" 
d="M35 28l494 652h-479v20h501v-29l-494 -650h502v-21h-524v28z" />
    <glyph glyph-name="bracketleft" unicode="[" horiz-adv-x="228" 
d="M212 752h-112v-801h108v-20h-129v841h133v-20z" />
    <glyph glyph-name="backslash" unicode="\" horiz-adv-x="361" 
d="M24 772h22l283 -828h-22z" />
    <glyph glyph-name="bracketright" unicode="]" horiz-adv-x="213" 
d="M14 772h133v-841h-129v20h108v801h-112v20z" />
    <glyph glyph-name="asciicircum" unicode="^" horiz-adv-x="449" 
d="M218 700h16l187 -376h-24l-171 346l-172 -346h-22z" />
    <glyph glyph-name="underscore" unicode="_" horiz-adv-x="538" 
d="M496 -9v-21h-459v21h459z" />
    <glyph glyph-name="grave" unicode="`" horiz-adv-x="233" 
d="M127 718l-69 80h30l63 -80h-24z" />
    <glyph glyph-name="a" unicode="a" horiz-adv-x="680" 
d="M317 544q88 0 154.5 -44.5t92.5 -130.5l-1 47v125h19v-541h-20v72l1 103q-26 -85 -91.5 -131.5t-154.5 -46.5q-48 0 -87 12.5t-69.5 34.5t-52.5 51.5t-35 63.5q-21 53 -21 111.5t21 111.5q13 34 35 63.5t52.5 51.5t69.5 34.5t87 12.5zM543 166q20 50 20 104.5t-20 104.5
q-12 31 -32.5 58.5t-48.5 47.5t-64.5 31.5t-80.5 11.5t-80 -11.5t-64.5 -31.5t-49 -47.5t-32.5 -58.5q-19 -50 -19 -104.5t19 -104.5q12 -32 32.5 -59t49 -47t64.5 -31.5t80 -11.5t80.5 11.5t64.5 31.5t48.5 47t32.5 59z" />
    <glyph glyph-name="b" unicode="b" horiz-adv-x="690" 
d="M363 544q48 0 87 -12.5t70 -34.5t52.5 -51.5t35.5 -63.5q20 -53 20 -111.5t-20 -111.5q-14 -34 -35.5 -63.5t-52.5 -51.5t-70 -34.5t-87 -12.5q-44 0 -83 12t-71 34.5t-55.5 56t-36.5 75.5l1 -103v-72h-20v699h20l-1 -330q25 86 91.5 130.5t154.5 44.5zM138 166
q12 -32 32 -59t48.5 -47t64.5 -31.5t80 -11.5t80.5 11.5t64.5 31.5t48.5 47t32.5 59q20 50 20 104.5t-20 104.5q-12 31 -32.5 58.5t-48.5 47.5t-64.5 31.5t-80.5 11.5t-80 -11.5t-64.5 -31.5t-48.5 -47.5t-32 -58.5q-20 -50 -20 -104.5t20 -104.5z" />
    <glyph glyph-name="c" unicode="c" horiz-adv-x="629" 
d="M326 524q-44 0 -80.5 -11.5t-64.5 -31.5t-48.5 -47.5t-32.5 -58.5q-10 -25 -14.5 -51.5t-4.5 -52.5q0 -27 4.5 -53.5t14.5 -51.5q12 -32 32.5 -59t48.5 -47t64.5 -31.5t80.5 -11.5q87 0 146 38t81 124h21q-23 -94 -88 -138t-160 -44q-48 0 -87 12.5t-69.5 34.5t-53 51.5
t-35.5 63.5q-20 54 -20 112q0 57 20 111q13 34 35.5 63.5t53 51.5t69.5 34.5t87 12.5q104 -2 165 -49.5t82 -128.5h-21q-20 73 -75.5 115t-150.5 43z" />
    <glyph glyph-name="d" unicode="d" horiz-adv-x="693" 
d="M327 544q88 0 154.5 -44.5t91.5 -130.5l-1 331h20v-700h-20v72l1 103q-13 -42 -36.5 -75.5t-55.5 -56t-71 -34.5t-83 -12q-48 0 -87 12.5t-70 34.5t-53 51.5t-35 63.5q-20 53 -20 111.5t20 111.5q13 34 35 63.5t53 51.5t70 34.5t87 12.5zM552 166q20 50 20 104.5
t-20 104.5q-12 31 -32 58.5t-48.5 47.5t-64.5 31.5t-80 11.5t-80.5 -11.5t-64.5 -31.5t-48.5 -47.5t-32.5 -58.5q-20 -50 -20 -104.5t20 -104.5q12 -32 32.5 -59t48.5 -47t64.5 -31.5t80.5 -11.5t80 11.5t64.5 31.5t48.5 47t32 59z" />
    <glyph glyph-name="e" unicode="e" horiz-adv-x="631" 
d="M560 289q-3 52 -22 95t-51 74t-75.5 48t-95.5 17q-44 0 -80.5 -11.5t-64.5 -31.5t-48.5 -47.5t-32.5 -58.5q-16 -39 -19 -85h489zM71 270q0 -27 4.5 -53.5t14.5 -51.5q12 -32 32.5 -59t48.5 -47t64.5 -31.5t80.5 -11.5q74 0 131.5 34t88.5 102h21q-32 -77 -95 -116.5
t-146 -39.5q-48 0 -87 12.5t-70 34.5t-53 51.5t-35 63.5q-11 26 -15.5 54.5t-4.5 57.5t4.5 57t15.5 54q13 34 35 63.5t53 51.5t70 34.5t87 12.5q59 0 108 -20.5t83.5 -57t53.5 -86.5t19 -109h-509z" />
    <glyph glyph-name="f" unicode="f" horiz-adv-x="328" 
d="M299 517h-165v-517h-20v517h-106v19h106q2 95 49 138q50 45 147 35l-2 -20q-88 9 -131 -29q-42 -39 -43 -124h165v-19z" />
    <glyph glyph-name="g" unicode="g" horiz-adv-x="688" 
d="M326 544q88 0 154.5 -44.5t91.5 -130.5v47v125h19v-477q0 -58 -19.5 -107t-54.5 -85t-83.5 -56t-107.5 -20q-85 0 -150.5 40t-94.5 123h21q25 -67 84.5 -105t139.5 -38q55 0 100 18.5t77 51.5t50 78t18 99l1 112q-26 -85 -91.5 -131.5t-154.5 -46.5q-48 0 -87 12.5
t-69.5 34.5t-53 51.5t-35.5 63.5q-20 53 -20 111.5t20 111.5q13 34 35.5 63.5t53 51.5t69.5 34.5t87 12.5zM552 166q19 50 19 104.5t-19 104.5q-12 31 -32.5 58.5t-48.5 47.5t-64.5 31.5t-80.5 11.5t-80.5 -11.5t-64.5 -31.5t-48.5 -47.5t-32.5 -58.5q-20 -50 -20 -104.5
t20 -104.5q12 -32 32.5 -59t48.5 -47t64.5 -31.5t80.5 -11.5t80.5 11.5t64.5 31.5t48.5 47t32.5 59z" />
    <glyph glyph-name="h" unicode="h" horiz-adv-x="665" 
d="M98 0v699h20l-1 -307q14 49 42 80q34 36 79.5 53t94.5 17q57 0 100.5 -18.5t73.5 -51.5t46 -79t16 -101v-3v-289h-20v289v3q0 50 -14.5 92.5t-42 73t-68 47.5t-92.5 17q-45 0 -86 -15.5t-72 -48.5q-25 -27 -40 -66.5t-16 -94.5v-297h-20z" />
    <glyph glyph-name="i" unicode="i" horiz-adv-x="212" 
d="M94 0v543h20v-543h-20zM104 678q8 0 14 -6t6 -14t-6 -14t-14 -6t-14 6t-6 14t6 14t14 6z" />
    <glyph glyph-name="j" unicode="j" horiz-adv-x="255" 
d="M-13 -178q86 -9 123 30q19 20 27 52t8 78v561h20v-561q0 -50 -9.5 -85.5t-31.5 -58.5q-43 -45 -139 -36zM155 680q8 0 14 -6t6 -14t-6 -14t-14 -6t-14 6t-6 14t6 14t14 6z" />
    <glyph glyph-name="k" unicode="k" horiz-adv-x="525" 
d="M118 699v-470l97 100l226 212h31l-242 -227l256 -314h-28l-243 299l-97 -96v-203h-20v699h20z" />
    <glyph glyph-name="l" unicode="l" horiz-adv-x="202" 
d="M104 699v-699h-20v699h20z" />
    <glyph glyph-name="m" unicode="m" horiz-adv-x="1001" 
d="M118 411q11 38 32 64q30 36 70 51.5t83 15.5h2q45 0 83 -15t65 -45q19 -21 31.5 -51t17.5 -58q3 31 16 58t27 44q29 36 69 51.5t83 15.5h2q45 0 83 -15t65 -45q28 -31 43 -76t16 -105v-4v-297h-20v297v4q-1 57 -14.5 98.5t-38.5 68.5q-50 54 -134 54h-2q-38 0 -74.5 -14
t-62.5 -46q-29 -35 -38.5 -78.5t-9.5 -87.5v-296h-20v296q0 45 -11 91t-43 81q-48 54 -133 54h-2q-38 0 -74.5 -14t-62.5 -46q-22 -26 -34.5 -64.5t-13.5 -92.5v-305h-20v541h20v-130z" />
    <glyph glyph-name="n" unicode="n" horiz-adv-x="666" 
d="M98 0v541h20l-1 -149q14 49 43 80q33 36 78.5 53t94.5 17q57 0 101 -18.5t74 -52t45.5 -79.5t15.5 -101v-291h-20v291q0 51 -14 93.5t-41 73t-67.5 47.5t-94.5 17q-44 0 -85.5 -15.5t-72.5 -48.5q-25 -27 -39.5 -66.5t-15.5 -94.5v-297h-21z" />
    <glyph glyph-name="o" unicode="o" horiz-adv-x="659" 
d="M100 375q-19 -52 -19 -104q0 -27 5 -53.5t14 -50.5q29 -75 89.5 -113.5t139.5 -37.5q79 -1 139.5 37.5t89.5 113.5q10 24 14.5 50.5t4.5 53.5q0 56 -19 104q-29 75 -89.5 113t-139.5 38t-139.5 -38t-89.5 -113zM329 -3q-85 -1 -150 40.5t-97 121.5q-21 54 -21 112t21 112
q31 79 96.5 121t150.5 41q85 1 150.5 -41t97.5 -121q11 -27 15.5 -55t4.5 -57t-4.5 -57t-15.5 -55q-32 -80 -97 -121.5t-151 -40.5z" />
    <glyph glyph-name="p" unicode="p" horiz-adv-x="693" 
d="M363 -3q-88 0 -154.5 44.5t-91.5 130.5l1 -330h-20v699h20v-72l-1 -103q26 85 91.5 132t154.5 47q48 0 87 -12.5t69.5 -34.5t52.5 -52t36 -64q20 -53 20 -111.5t-20 -111.5q-14 -34 -36 -63.5t-52.5 -51.5t-69.5 -34.5t-87 -12.5zM137 375q-20 -50 -20 -104.5t20 -104.5
q12 -32 32.5 -59t48.5 -47t64.5 -31.5t80.5 -11.5t80.5 11.5t64.5 31.5t48.5 47t32.5 59q20 50 20 104.5t-20 104.5q-12 31 -32.5 58.5t-48.5 47.5t-64.5 31.5t-80.5 11.5t-80.5 -11.5t-64.5 -31.5t-48.5 -47.5t-32.5 -58.5z" />
    <glyph glyph-name="q" unicode="q" horiz-adv-x="689" 
d="M326 -3q-48 0 -87 12.5t-69.5 34.5t-52.5 51.5t-35 63.5q-21 53 -21 111.5t21 111.5q13 34 35 64t52.5 52t69.5 34.5t87 12.5q89 0 154.5 -47t91.5 -132l-1 103v72h20v-699h-20l2 330q-26 -86 -92.5 -130.5t-154.5 -44.5zM552 375q-12 31 -32.5 58.5t-48.5 47.5
t-64.5 31.5t-80.5 11.5t-80 -11.5t-64.5 -31.5t-49 -47.5t-32.5 -58.5q-19 -50 -19 -104.5t19 -104.5q12 -32 32.5 -59t49 -47t64.5 -31.5t80 -11.5t80.5 11.5t64.5 31.5t48.5 47t32.5 59q20 50 20 104.5t-20 104.5z" />
    <glyph glyph-name="r" unicode="r" horiz-adv-x="414" 
d="M98 -2v543h20v-116q22 57 70.5 87.5t108.5 30.5q43 0 88 -16v-21q-23 9 -45.5 13t-42.5 4q-39 0 -71.5 -14t-56 -38t-37 -57t-14.5 -72v-344h-20z" />
    <glyph glyph-name="s" unicode="s" horiz-adv-x="574" 
d="M469 397q0 46 -32 75.5t-79 43.5q-39 11 -78 11q-20 0 -39.5 -2.5t-37.5 -7.5q-45 -13 -75 -42t-30 -76q0 -32 16 -51.5t42 -31t60 -17t69 -9.5q40 -5 79 -11.5t69.5 -20.5t49 -39.5t18.5 -68.5q0 -56 -36 -92t-89 -52q-42 -12 -87 -11q-22 0 -44 3t-43 10
q-28 8 -52.5 22t-42.5 34t-28.5 45.5t-10.5 56.5h20q0 -54 34.5 -89t84.5 -50q39 -12 83 -12q40 -1 81 11q47 14 78.5 45t31.5 79q0 36 -17 57.5t-45 34t-63.5 18t-72.5 10.5q-39 5 -76 11t-66 19.5t-46.5 36.5t-17.5 62q0 54 34.5 88.5t85.5 48.5q20 6 41 8.5t42 2.5
q42 0 83 -11q27 -8 50 -20.5t40 -30t26.5 -39.5t9.5 -49h-20z" />
    <glyph glyph-name="t" unicode="t" horiz-adv-x="337" 
d="M309 0q-54 -6 -89 1.5t-55.5 29t-28 58.5t-7.5 91v339h-102v19h102v113h20v-113h149v-19h-149v-339q0 -47 5.5 -80.5t22.5 -53t48 -26.5t82 -1z" />
    <glyph glyph-name="u" unicode="u" horiz-adv-x="660" 
d="M563 541v-541h-20l1 149q-14 -49 -42 -80q-34 -36 -79.5 -53t-93.5 -17q-58 0 -102 18.5t-74 52t-45.5 79.5t-15.5 101v291h20v-291q0 -51 14 -93.5t41 -73t67.5 -47.5t94.5 -17q45 0 86 15.5t72 48.5q25 27 40 66.5t16 94.5v297h20z" />
    <glyph glyph-name="v" unicode="v" horiz-adv-x="540" 
d="M45 541l224 -520l224 520h22l-233 -541h-26l-232 541h21z" />
    <glyph glyph-name="w" unicode="w" horiz-adv-x="794" 
d="M51 541l172 -514l167 490h15l167 -490l172 514h21l-182 -541h-24l-121 354l-41 126l-40 -125l-121 -355h-25l-181 541h21z" />
    <glyph glyph-name="x" unicode="x" horiz-adv-x="520" 
d="M477 541l-204 -262l217 -279h-25l-205 263l-204 -263h-26l217 279l-204 262h25l192 -245l192 245h25z" />
    <glyph glyph-name="y" unicode="y" horiz-adv-x="544" 
d="M53 541l218 -521l230 521h22l-321 -730h-22l80 186l-229 544h22z" />
    <glyph glyph-name="z" unicode="z" horiz-adv-x="467" 
d="M43 541h389v-26l-379 -495h381v-20h-402v26l380 496h-369v19z" />
    <glyph glyph-name="braceleft" unicode="{" horiz-adv-x="230" 
d="M56 348q40 -18 56.5 -59t16.5 -91v-170q0 -45 20.5 -61t56.5 -17v-18q-56 0 -77.5 25t-21.5 69v170q0 50 -16 87t-53 51v30q39 14 54 52.5t15 89.5v175q0 41 19 67.5t62 26.5h18v-19q-18 1 -32 -1.5t-24 -10.5t-15.5 -23t-5.5 -40v-176q0 -65 -18 -102t-55 -54v-1z" />
    <glyph glyph-name="bar" unicode="|" horiz-adv-x="172" 
d="M75 759h23v-908h-23v908z" />
    <glyph glyph-name="braceright" unicode="}" horiz-adv-x="364" 
d="M315 231q-14 0 -28.5 -6t-26.5 -17.5t-19.5 -28t-7.5 -37.5q0 -27 4.5 -46.5t10.5 -37t10.5 -36t4.5 -43.5q0 -70 -59.5 -107t-175.5 -37v103q56 0 89.5 17.5t33.5 54.5q0 15 -7.5 31t-17 34t-17 37.5t-7.5 41.5q0 13 6 28.5t19 30.5t33.5 29t50.5 25q-30 10 -50.5 24.5
t-33.5 30t-19 31t-6 28.5q0 22 7.5 41.5t17 37.5t17 34t7.5 31q0 37 -33.5 54.5t-89.5 17.5v103q116 0 175.5 -37t59.5 -107q0 -25 -4.5 -43.5t-10.5 -36t-10.5 -37t-4.5 -46.5q0 -21 7.5 -37.5t19.5 -28t26.5 -17.5t28.5 -6v-73z" />
    <glyph glyph-name="asciitilde" unicode="~" horiz-adv-x="483" 
d="M445 376q-20 -34 -43.5 -50.5t-50.5 -20t-56 5t-60 25.5q-29 16 -54 24t-48 5.5t-45 -17t-44 -44.5l-14 10q22 36 47.5 53t52.5 19.5t56.5 -7.5t59.5 -26q27 -15 52 -23t48 -6t44 16.5t40 44.5z" />
    <glyph glyph-name="uni00A0" unicode="&#xa0;" horiz-adv-x="257" 
 />
    <glyph glyph-name="exclamdown" unicode="&#xa1;" horiz-adv-x="127" 
d="M47 -190v613h24v-613h-24zM59 474q-8 0 -13.5 6t-5.5 14q0 7 5.5 13t13.5 6t14 -6t6 -13q0 -8 -6 -14t-14 -6z" />
    <glyph glyph-name="cent" unicode="&#xa2;" horiz-adv-x="712" 
d="M351 780h22v-84q69 -2 129 -29t106 -74q47 -49 74 -113h-24q-11 29 -28 53t-37 45q-42 43 -99 68.5t-121 27.5v-653q64 1 121 26.5t99 70.5q20 20 37 43.5t28 52.5h24q-14 -32 -32.5 -60.5t-41.5 -51.5q-46 -48 -106 -75t-129 -28v-101h-22v102q-67 2 -124 29t-101 73
q-47 48 -73.5 110.5t-26.5 135.5q0 72 26.5 134.5t73.5 110.5q44 45 101 72t124 30v85zM140 578q-43 -45 -68 -104t-25 -126q0 -68 25 -127t68 -103q41 -43 95 -68.5t116 -28.5v652q-62 -3 -116 -28t-95 -67z" />
    <glyph glyph-name="sterling" unicode="&#xa3;" horiz-adv-x="484" 
d="M434 573q-9 32 -25.5 53.5t-38 34.5t-46.5 18.5t-52 5.5q-30 0 -58 -9t-50 -28.5t-35.5 -51.5t-13.5 -77v-164h222v-20h-222v-314h351v-21h-453v21h79v314h-77v20h77v164q0 49 15 84.5t40 58t57 33.5t66 11q28 0 56 -5t52.5 -19t44 -39t31.5 -65z" />
    <glyph glyph-name="currency" unicode="&#xa4;" horiz-adv-x="506" 
d="M253 222q57 0 88 40.5t31 102.5q0 30 -8 56.5t-23 46t-37.5 30.5t-50.5 11q-29 0 -51 -11t-37.5 -30.5t-23.5 -46t-8 -56.5q0 -31 8 -57t23.5 -45t37.5 -30t51 -11zM19 168l69 71q-38 55 -38 126t38 124l-69 71l45 43l67 -69q24 18 54.5 29t67.5 11q36 0 67 -11t55 -29
l67 69l45 -43l-69 -71q37 -54 37 -124q0 -35 -10 -67t-28 -58l70 -72l-45 -43l-68 69q-49 -37 -121 -37t-121 37l-68 -69z" />
    <glyph glyph-name="yen" unicode="&#xa5;" horiz-adv-x="539" 
d="M89 198h168v91h-167v20h154l-245 390h27l242 -388l242 388h27l-245 -390h159v-20h-172v-91h171v-20h-171v-178h-22v178h-168v20z" />
    <glyph glyph-name="brokenbar" unicode="&#xa6;" horiz-adv-x="156" 
d="M66 247h23v-390h-23v390zM89 381h-23v395h23v-395z" />
    <glyph glyph-name="section" unicode="&#xa7;" horiz-adv-x="400" 
d="M194 259q17 -3 35.5 -9t43.5 -15q33 14 54.5 40.5t21.5 59.5q0 30 -14.5 49.5t-37 31.5t-50 19t-52.5 12q-16 3 -31.5 6t-28.5 7q-35 -17 -57 -41.5t-21 -58.5q0 -27 13.5 -45t34 -29t44.5 -17t45 -10zM115 470q-32 18 -47 47.5t-15 56.5q0 34 13.5 61t36.5 46t52.5 29
t61.5 10t66.5 -8.5t62.5 -29.5l-10 -18q-29 21 -59.5 27.5t-62.5 7.5q-27 0 -52.5 -9t-45 -25.5t-30.5 -39.5t-11 -51q0 -29 12 -48t31 -31t43.5 -18.5t48.5 -10.5q32 -5 61 -14t51.5 -25t36 -38.5t13.5 -53.5q0 -12 -3 -26.5t-11.5 -29t-23 -28.5t-38.5 -26
q36 -26 48 -48.5t12 -53.5q0 -35 -17 -60.5t-43 -42.5t-57 -25t-59 -8q-45 0 -83.5 14t-67.5 45l16 16q26 -25 61.5 -39t73.5 -14q26 0 53.5 7t49.5 21.5t35.5 36t13.5 49.5q0 29 -15 49.5t-36.5 34t-47 21t-46.5 11.5q-30 4 -57.5 13t-49 23.5t-34.5 35t-13 49.5
q0 28 18.5 59t63.5 51z" />
    <glyph glyph-name="dieresis" unicode="&#xa8;" horiz-adv-x="325" 
d="M76 806q9 0 16 -7t7 -17q0 -8 -7 -15t-16 -7t-16.5 5.5t-7.5 16.5q0 12 7.5 18t16.5 6zM232 806q9 0 16 -7t7 -17q0 -8 -7 -15t-16 -7t-16.5 5.5t-7.5 16.5q0 12 7.5 18t16.5 6z" />
    <glyph glyph-name="copyright" unicode="&#xa9;" horiz-adv-x="752" 
d="M552 281q-9 -21 -19.5 -38t-24.5 -31q-26 -26 -60 -41.5t-73 -15.5t-72.5 15.5t-59.5 41.5t-40.5 60.5t-14.5 73.5q0 40 14.5 74.5t40.5 61.5q26 26 59.5 41t72.5 15t73 -15t60 -41t44 -70h-25q-7 17 -16 30t-20 23q-22 23 -51.5 36.5t-64.5 13.5t-64.5 -13.5
t-52.5 -36.5q-22 -23 -35 -53t-13 -66q0 -35 13 -65t35 -53q23 -23 52.5 -36t64.5 -13t64.5 13t51.5 36q23 21 36 53h25zM37 350q0 75 26.5 139t72.5 110t107 72t129 26q69 0 130.5 -26t107 -72t72.5 -110t27 -139t-27 -139t-72.5 -110.5t-107 -73t-130.5 -26.5
q-68 0 -129 26.5t-107 73t-72.5 110.5t-26.5 139zM59 350q0 -72 24.5 -132.5t67.5 -104t99.5 -67.5t121.5 -24t122.5 24t100 67.5t67.5 104t25 132.5t-25 132t-67.5 103t-100 67t-122.5 24t-121.5 -24t-99.5 -67t-67.5 -103t-24.5 -132z" />
    <glyph glyph-name="ordfeminine" unicode="&#xaa;" horiz-adv-x="588" 
d="M27 -39h537v-19h-537v19zM294 544q84 0 147.5 -42.5t88.5 -124.5l-1 45v119h18v-517h-19v69l1 98q-26 -81 -88 -125.5t-147 -44.5q-46 0 -83.5 12t-66.5 33t-50 49t-33 61q-20 51 -20 106.5t20 106.5q12 33 33 61t50 49t66.5 33t83.5 12zM510 183q18 48 18 100t-18 100
q-24 60 -78 101t-138 41t-138.5 -41t-77.5 -101q-18 -48 -18 -100t18 -100q23 -61 77.5 -102t138.5 -41t138 41t78 102z" />
    <glyph glyph-name="guillemotleft" unicode="&#xab;" horiz-adv-x="384" 
d="M31 361l156 196h27l-157 -196l157 -193h-27zM159 361l156 196h27l-157 -196l157 -193h-27z" />
    <glyph glyph-name="logicalnot" unicode="&#xac;" horiz-adv-x="516" 
d="M26 402h439v-235h-20v215h-419v20z" />
    <glyph glyph-name="uni00AD" unicode="&#xad;" horiz-adv-x="356" 
d="M27 360h279v-20h-279v20z" />
    <glyph glyph-name="registered" unicode="&#xae;" horiz-adv-x="762" 
d="M295 173h-20v362h114q50 0 83.5 -27t34.5 -75q0 -19 -7.5 -37.5t-22.5 -33.5t-37 -24.5t-51 -10.5h-37l149 -154h-28l-143 153v19h59q26 0 44.5 8t30.5 20.5t17.5 28t5.5 32.5q0 33 -23.5 57.5t-74.5 24.5h-94v-343zM36 352q0 76 27 141t73.5 111.5t108.5 73t131 26.5
q70 0 132.5 -26.5t109.5 -73t74 -111.5t27 -141q0 -77 -27 -142t-74 -112.5t-109.5 -74t-132.5 -26.5q-69 0 -131 26.5t-108.5 74t-73.5 112.5t-27 142zM57 352q0 -74 25 -135.5t68.5 -105.5t101.5 -69t124 -25q67 0 125.5 25t102 69t69 105.5t25.5 135.5q0 73 -25.5 134
t-69 105t-102 68.5t-125.5 24.5q-66 0 -124 -24.5t-101.5 -68.5t-68.5 -105t-25 -134z" />
    <glyph glyph-name="macron" unicode="&#xaf;" horiz-adv-x="333" 
d="M47 785h241v-19h-241v19z" />
    <glyph glyph-name="degree" unicode="&#xb0;" horiz-adv-x="292" 
d="M148 496q-22 0 -41 8t-33.5 22.5t-22.5 33.5t-8 41t8 41t22.5 33t33.5 22.5t41 8.5t41.5 -8.5t33.5 -22.5t22.5 -33t8.5 -41t-8.5 -41t-22.5 -33.5t-33.5 -22.5t-41.5 -8zM148 515q18 0 33.5 7t27 19t18 27.5t6.5 32.5q0 16 -6.5 31.5t-18 27.5t-27 19t-33.5 7t-33.5 -7
t-27 -19t-18 -27.5t-6.5 -31.5q0 -17 6.5 -32.5t18 -27.5t27 -19t33.5 -7z" />
    <glyph glyph-name="plusminus" unicode="&#xb1;" horiz-adv-x="492" 
d="M459 19v-19h-425v19h425zM34 358h198v199h21v-199h198v-20h-198v-206h-21v206h-198v20z" />
    <glyph glyph-name="uni00B2" unicode="&#xb2;" horiz-adv-x="369" 
d="M33 618q0 28 9 52.5t27 43.5t45 30t63 11q34 0 61 -10.5t45 -27.5t27.5 -40t8.5 -48q-1 -34 -17.5 -64t-40.5 -50q-48 -40 -95 -79.5t-95 -80.5h251v-22h-288v18l211 179q26 21 38.5 47t13.5 50q2 44 -29 75t-91 31q-30 0 -53 -9.5t-38.5 -25t-23.5 -36.5t-8 -44h-21z
" />
    <glyph glyph-name="uni00B3" unicode="&#xb3;" horiz-adv-x="373" 
d="M305 642q0 -11 -4.5 -25.5t-13.5 -28.5t-24 -26t-36 -18q45 -8 72 -37t27 -69q0 -24 -10 -45.5t-29 -37.5t-47 -25.5t-65 -9.5q-33 0 -58 8.5t-42 23t-27 33.5t-13 41l22 1q5 -35 33 -60.5t85 -25.5q65 0 96.5 27.5t31.5 68.5q0 19 -8 36.5t-24 31t-40 21.5t-56 8h-33v20
h33q28 0 48.5 7.5t33.5 20t19 28.5t6 33q0 22 -9.5 38.5t-25 27.5t-35 16.5t-39.5 5.5q-34 0 -64 -16t-36 -50l-21 1q3 23 15 39.5t28.5 27t36.5 15.5t41 5q24 0 48 -7t42.5 -21t30 -34.5t11.5 -48.5z" />
    <glyph glyph-name="acute" unicode="&#xb4;" horiz-adv-x="204" 
d="M70 718l65 80h30l-71 -80h-24z" />
    <glyph glyph-name="mu" unicode="&#xb5;" horiz-adv-x="699" 
d="M66 0h-20v698h19l286 -422l287 422h19v-698h-20v663l-278 -413h-15l-278 412v-662z" />
    <glyph glyph-name="paragraph" unicode="&#xb6;" horiz-adv-x="557" 
d="M233 321q-52 2 -90.5 19t-64.5 43.5t-39 59t-13 65.5q0 36 13 70.5t39 61.5t64.5 43.5t90.5 16.5h272v-811h-20v792h-232v-792h-20v432z" />
    <glyph glyph-name="periodcentered" unicode="&#xb7;" horiz-adv-x="165" 
d="M81 360q9 0 16 -7t7 -17q0 -8 -7 -15t-16 -7t-16.5 5.5t-7.5 16.5q0 12 7.5 18t16.5 6z" />
    <glyph glyph-name="cedilla" unicode="&#xb8;" horiz-adv-x="252" 
d="M108 -53q25 0 42.5 -7t27 -17.5t13 -23.5t1.5 -24q-5 -26 -27 -39t-54 -13q-14 0 -30 4t-33 14l3 17q14 -9 33.5 -12.5t38 -1.5t32 10.5t16.5 23.5t-5 26t-22 17.5t-31.5 9t-33.5 0.5q10 20 20.5 37.5t20.5 36.5h21z" />
    <glyph glyph-name="uni00B9" unicode="&#xb9;" horiz-adv-x="225" 
d="M50 596l-17 12l103 144h21v-418h-21v381z" />
    <glyph glyph-name="ordmasculine" unicode="&#xba;" horiz-adv-x="358" 
d="M176 425q-29 0 -54 10t-43 28t-28.5 43t-10.5 55q0 28 10.5 52.5t28.5 42.5t42.5 28t53.5 10t54 -10t43.5 -28t29 -42.5t10.5 -52.5q0 -30 -10.5 -55t-29 -43t-43.5 -28t-53 -10zM176 444q23 0 44 8.5t36.5 24t24.5 37t9 47.5q0 25 -9 46t-24.5 36t-36.5 23t-44 8
q-24 0 -44.5 -8t-36.5 -23t-25 -36t-9 -46q0 -26 9 -47.5t25 -37t36.5 -24t44.5 -8.5zM47 324h263v-21h-263v21z" />
    <glyph glyph-name="guillemotright" unicode="&#xbb;" horiz-adv-x="366" 
d="M177 168h-27l157 193l-157 196h27l156 -196zM49 168h-27l157 193l-157 196h27l156 -196z" />
    <glyph glyph-name="onequarter" unicode="&#xbc;" horiz-adv-x="753" 
d="M130 -23l440 769h24l-440 -769h-24zM653 121h58v-20h-58v-101h-22v101h-212l-16 22l215 296h35v-298zM632 121v283l-205 -283h205zM62 545l-17 12l103 144h21v-405h-21v368z" />
    <glyph glyph-name="onehalf" unicode="&#xbd;" horiz-adv-x="790" 
d="M110 -23l440 769h24l-440 -769h-24zM55 545l-17 12l103 144h21v-405h-21v368zM447 284q0 28 9 52.5t26.5 43.5t44 30t62.5 11q34 0 61 -10.5t45 -27.5t27.5 -40t8.5 -48q-1 -34 -17.5 -64t-40.5 -50l-193 -162h254v-20h-288v18l211 179q26 21 38.5 47t13.5 50
q2 44 -29 75t-91 31q-30 0 -53 -9.5t-38 -25t-22.5 -36.5t-7.5 -44h-21z" />
    <glyph glyph-name="threequarters" unicode="&#xbe;" horiz-adv-x="849" 
d="M758 121h46v-21h-46v-100h-22v100h-218l-16 23l221 296h35v-298zM737 121v283l-211 -283h211zM234 -23l440 769h24l-440 -769h-24zM326 604q0 -11 -4.5 -25.5t-13.5 -28.5t-24 -26t-36 -18q45 -8 72 -37t27 -69q0 -24 -10 -45.5t-29 -37.5t-47 -25.5t-65 -9.5
q-33 0 -58 8.5t-42 23t-27 33.5t-13 41l22 1q5 -35 33 -60.5t85 -25.5q65 0 96.5 27.5t31.5 68.5q0 19 -8 36.5t-24 31t-40 21.5t-56 8h-33v20h33q28 0 48.5 7.5t33.5 20t19 28.5t6 33q0 22 -9.5 38.5t-25 27.5t-35 16.5t-39.5 5.5q-34 0 -64 -16t-36 -50l-21 1
q3 23 15 39.5t28.5 27t36.5 15.5t41 5q24 0 48 -7t42.5 -21t30 -34.5t11.5 -48.5z" />
    <glyph glyph-name="questiondown" unicode="&#xbf;" horiz-adv-x="515" 
d="M268 425h22l1 -117q0 -27 -9.5 -46t-25.5 -33.5t-36 -25.5t-41 -22q-20 -11 -39.5 -25t-35 -33t-25.5 -45t-11 -60q-1 -37 12.5 -71t40.5 -60.5t67 -42t92 -15.5q74 0 122.5 32.5t71.5 82.5l19 -10q-26 -57 -78.5 -92.5t-134.5 -35.5q-57 0 -101 17.5t-73.5 46.5
t-44.5 67.5t-15 79.5q1 40 12.5 69.5t30 51.5t41 37.5t45.5 27.5q19 10 36 19.5t29.5 21.5t20 27.5t7.5 37.5v116zM279 477q-8 -1 -13.5 5t-5.5 14q0 7 5.5 13t13.5 6q7 0 13.5 -6t6.5 -13q0 -8 -6 -14t-14 -5z" />
    <glyph glyph-name="Agrave" unicode="&#xc0;" horiz-adv-x="584" 
d="M127 254h329q-42 109 -82 212t-82 212zM465 233h-347l-94 -233h-24l282 710h21l281 -710h-24zM287 753l-69 80h30l63 -80h-24z" />
    <glyph glyph-name="Aacute" unicode="&#xc1;" horiz-adv-x="584" 
d="M127 254h329q-42 109 -82 212t-82 212zM465 233h-347l-94 -233h-24l282 710h21l281 -710h-24zM279 752l65 80h30l-71 -80h-24z" />
    <glyph glyph-name="Acircumflex" unicode="&#xc2;" horiz-adv-x="584" 
d="M127 254h329q-42 109 -82 212t-82 212zM465 233h-347l-94 -233h-24l282 710h21l281 -710h-24zM203 749l73 67h32l73 -67h-26l-63 52l-63 -52h-26z" />
    <glyph glyph-name="Atilde" unicode="&#xc3;" horiz-adv-x="584" 
d="M127 254h329q-42 109 -82 212t-82 212zM465 233h-347l-94 -233h-24l282 710h21l281 -710h-24zM204 763q2 15 11 26t22 16q20 8 34 2.5t25.5 -14.5t22.5 -16.5t26 -1.5q18 8 24 30l17 -5q-8 -32 -34 -42q-19 -8 -33 -1.5t-26 15.5t-24 15.5t-27 -0.5q-7 -3 -13.5 -10
t-8.5 -19z" />
    <glyph glyph-name="Adieresis" unicode="&#xc4;" horiz-adv-x="584" 
d="M127 254h329q-42 109 -82 212t-82 212zM465 233h-347l-94 -233h-24l282 710h21l281 -710h-24zM215 795q9 0 16 -7t7 -17q0 -8 -7 -15t-16 -7t-16.5 5.5t-7.5 16.5q0 12 7.5 18t16.5 6zM371 795q9 0 16 -7t7 -17q0 -8 -7 -15t-16 -7t-16.5 5.5t-7.5 16.5q0 12 7.5 18
t16.5 6z" />
    <glyph glyph-name="Aring" unicode="&#xc5;" horiz-adv-x="584" 
d="M127 254h329q-42 109 -82 212t-82 212zM465 233h-347l-94 -233h-24l282 710h21l281 -710h-24zM238 787q0 23 15.5 38t38.5 15t39.5 -15t16.5 -38t-16.5 -37.5t-40.5 -14.5q-22 0 -37.5 15t-15.5 37zM256 787q0 -14 10.5 -24.5t25.5 -10.5q16 0 27 10.5t11 24.5
q0 15 -11 25.5t-27 10.5q-15 0 -25.5 -10.5t-10.5 -25.5z" />
    <glyph glyph-name="AE" unicode="&#xc6;" horiz-adv-x="828" 
d="M434 21h369v-21h-390v261h-239l-146 -261h-24l391 700h406v-21h-367v-319h359v-21h-359v-318zM408 683l-224 -401h229v401h-5z" />
    <glyph glyph-name="Ccedilla" unicode="&#xc7;" horiz-adv-x="704" 
d="M654 482q-12 29 -29 53t-37 45q-43 45 -101.5 70.5t-125.5 25.5q-66 0 -124.5 -25.5t-102.5 -70.5q-43 -45 -68.5 -104.5t-25.5 -126.5q0 -68 25.5 -127.5t68.5 -103.5q44 -45 102.5 -71t124.5 -26q67 0 125.5 26t101.5 71q20 20 37 44t29 53h24q-27 -64 -75 -113
q-45 -46 -102.5 -73.5t-126.5 -29.5l-29 -52q25 0 42.5 -7t27 -17.5t13 -23.5t1.5 -24q-5 -26 -27 -39t-54 -13q-14 0 -30 4t-33 14l3 17q14 -9 33.5 -12.5t38 -1.5t32 10.5t16.5 23.5t-5 26t-22 17.5t-31.5 9t-33.5 0.5q9 18 18.5 34.5t19.5 33.5q-69 2 -129 28.5
t-106 74.5t-73 111t-27 136q0 72 27 135t73 111q48 48 109 75.5t133 27.5t133.5 -27.5t108.5 -75.5q23 -24 42 -52.5t33 -60.5h-24z" />
    <glyph glyph-name="Egrave" unicode="&#xc8;" horiz-adv-x="461" 
d="M66 21h369v-21h-390v700h388v-21h-367v-318h359v-22h-359v-318zM261 751l-69 80h30l63 -80h-24z" />
    <glyph glyph-name="Eacute" unicode="&#xc9;" horiz-adv-x="461" 
d="M66 21h369v-21h-390v700h388v-21h-367v-318h359v-22h-359v-318zM229 749l65 80h30l-71 -80h-24z" />
    <glyph glyph-name="Ecircumflex" unicode="&#xca;" horiz-adv-x="461" 
d="M66 21h369v-21h-390v700h388v-21h-367v-318h359v-22h-359v-318zM161 751l73 67h32l73 -67h-26l-63 52l-63 -52h-26z" />
    <glyph glyph-name="Edieresis" unicode="&#xcb;" horiz-adv-x="461" 
d="M66 21h369v-21h-390v700h388v-21h-367v-318h359v-22h-359v-318zM169 795q9 0 16 -7t7 -17q0 -8 -7 -15t-16 -7t-16.5 5.5t-7.5 16.5q0 12 7.5 18t16.5 6zM325 795q9 0 16 -7t7 -17q0 -8 -7 -15t-16 -7t-16.5 5.5t-7.5 16.5q0 12 7.5 18t16.5 6z" />
    <glyph glyph-name="Igrave" unicode="&#xcc;" horiz-adv-x="341" 
d="M328 681h-148v-661h148v-20h-316v20h147v661h-147v19h316v-19zM167 748l-69 80h30l63 -80h-24z" />
    <glyph glyph-name="Iacute" unicode="&#xcd;" horiz-adv-x="341" 
d="M328 681h-148v-661h148v-20h-316v20h147v661h-147v19h316v-19zM160 747l65 80h30l-71 -80h-24z" />
    <glyph glyph-name="Icircumflex" unicode="&#xce;" horiz-adv-x="341" 
d="M328 681h-148v-661h148v-20h-316v20h147v661h-147v19h316v-19zM81 749l73 67h32l73 -67h-26l-63 52l-63 -52h-26z" />
    <glyph glyph-name="Idieresis" unicode="&#xcf;" horiz-adv-x="341" 
d="M328 681h-148v-661h148v-20h-316v20h147v661h-147v19h316v-19zM93 793q9 0 16 -7t7 -17q0 -8 -7 -15t-16 -7t-16.5 5.5t-7.5 16.5q0 12 7.5 18t16.5 6zM249 793q9 0 16 -7t7 -17q0 -8 -7 -15t-16 -7t-16.5 5.5t-7.5 16.5q0 12 7.5 18t16.5 6z" />
    <glyph glyph-name="Eth" unicode="&#xd0;" horiz-adv-x="684" 
d="M2 361h75v338h237q86 0 150.5 -30t107.5 -79.5t64.5 -112t21.5 -128.5t-21.5 -128.5t-64.5 -111.5t-107.5 -79t-150.5 -30h-237v342h-75v19zM314 21q81 0 141.5 28t101 74t60.5 105t20 121t-20 121t-60.5 105.5t-101 74.5t-141.5 28h-216v-317h139v-19h-139v-321h216z
" />
    <glyph glyph-name="Ntilde" unicode="&#xd1;" horiz-adv-x="582" 
d="M45 0v700h18l457 -660v660h21v-700h-20l-454 656v-656h-22zM211 751q2 16 11.5 27.5t23.5 17.5q21 9 36 2.5t27.5 -16t24.5 -17t28 -1.5q18 8 26 32l18 -6q-5 -16 -13.5 -27.5t-23.5 -17.5q-20 -8 -35 -1t-28 16.5t-25.5 16.5t-28.5 -1q-8 -3 -15 -10t-9 -21z" />
    <glyph glyph-name="Ograve" unicode="&#xd2;" horiz-adv-x="758" 
d="M712 350q0 70 -26.5 131t-71.5 107t-106.5 73t-131.5 27q-69 0 -130 -27t-107 -73q-45 -46 -71.5 -107t-26.5 -131t26.5 -131t71.5 -107q46 -46 107 -73t130 -27q70 0 131.5 27t106.5 73t71.5 107t26.5 131zM19 350q0 75 29 139.5t77 114.5t112.5 78t138.5 28
q75 0 140 -28t113 -78t76.5 -114.5t28.5 -139.5t-28.5 -139.5t-76.5 -114.5t-113 -78t-140 -28q-74 0 -138.5 28t-112.5 78t-77 114.5t-29 139.5zM382 757l-69 80h30l63 -80h-24z" />
    <glyph glyph-name="Oacute" unicode="&#xd3;" horiz-adv-x="758" 
d="M712 350q0 70 -26.5 131t-71.5 107t-106.5 73t-131.5 27q-69 0 -130 -27t-107 -73q-45 -46 -71.5 -107t-26.5 -131t26.5 -131t71.5 -107q46 -46 107 -73t130 -27q70 0 131.5 27t106.5 73t71.5 107t26.5 131zM19 350q0 75 29 139.5t77 114.5t112.5 78t138.5 28
q75 0 140 -28t113 -78t76.5 -114.5t28.5 -139.5t-28.5 -139.5t-76.5 -114.5t-113 -78t-140 -28q-74 0 -138.5 28t-112.5 78t-77 114.5t-29 139.5zM366 755l65 80h30l-71 -80h-24z" />
    <glyph glyph-name="Ocircumflex" unicode="&#xd4;" horiz-adv-x="758" 
d="M712 350q0 70 -26.5 131t-71.5 107t-106.5 73t-131.5 27q-69 0 -130 -27t-107 -73q-45 -46 -71.5 -107t-26.5 -131t26.5 -131t71.5 -107q46 -46 107 -73t130 -27q70 0 131.5 27t106.5 73t71.5 107t26.5 131zM19 350q0 75 29 139.5t77 114.5t112.5 78t138.5 28
q75 0 140 -28t113 -78t76.5 -114.5t28.5 -139.5t-28.5 -139.5t-76.5 -114.5t-113 -78t-140 -28q-74 0 -138.5 28t-112.5 78t-77 114.5t-29 139.5zM287 760l73 67h32l73 -67h-26l-63 52l-63 -52h-26z" />
    <glyph glyph-name="Otilde" unicode="&#xd5;" horiz-adv-x="758" 
d="M712 350q0 70 -26.5 131t-71.5 107t-106.5 73t-131.5 27q-69 0 -130 -27t-107 -73q-45 -46 -71.5 -107t-26.5 -131t26.5 -131t71.5 -107q46 -46 107 -73t130 -27q70 0 131.5 27t106.5 73t71.5 107t26.5 131zM19 350q0 75 29 139.5t77 114.5t112.5 78t138.5 28
q75 0 140 -28t113 -78t76.5 -114.5t28.5 -139.5t-28.5 -139.5t-76.5 -114.5t-113 -78t-140 -28q-74 0 -138.5 28t-112.5 78t-77 114.5t-29 139.5zM281 767q2 16 11.5 27.5t23.5 17.5q21 9 35.5 2.5t27 -16t24.5 -17t28 -1.5q18 8 26 32l18 -6q-5 -16 -13.5 -27.5
t-23.5 -17.5q-20 -8 -35 -1t-27.5 16.5t-25.5 16.5t-29 -1q-7 -3 -14 -10t-9 -21z" />
    <glyph glyph-name="Odieresis" unicode="&#xd6;" horiz-adv-x="758" 
d="M712 350q0 70 -26.5 131t-71.5 107t-106.5 73t-131.5 27q-69 0 -130 -27t-107 -73q-45 -46 -71.5 -107t-26.5 -131t26.5 -131t71.5 -107q46 -46 107 -73t130 -27q70 0 131.5 27t106.5 73t71.5 107t26.5 131zM19 350q0 75 29 139.5t77 114.5t112.5 78t138.5 28
q75 0 140 -28t113 -78t76.5 -114.5t28.5 -139.5t-28.5 -139.5t-76.5 -114.5t-113 -78t-140 -28q-74 0 -138.5 28t-112.5 78t-77 114.5t-29 139.5zM303 812q9 0 16 -7t7 -17q0 -8 -7 -15t-16 -7t-16.5 5.5t-7.5 16.5q0 12 7.5 18t16.5 6zM459 812q9 0 16 -7t7 -17
q0 -8 -7 -15t-16 -7t-16.5 5.5t-7.5 16.5q0 12 7.5 18t16.5 6z" />
    <glyph glyph-name="multiply" unicode="&#xd7;" horiz-adv-x="401" 
d="M58 499l150 -150l144 144l14 -12l-145 -146l150 -150l-13 -12l-150 150l-153 -154l-14 13l153 154l-150 151z" />
    <glyph glyph-name="Oslash" unicode="&#xd8;" horiz-adv-x="758" 
d="M19 350q0 75 29 139.5t77 114.5t112.5 78t138.5 28q51 0 97.5 -13.5t87.5 -38.5l57 89h25l-65 -100q29 -21 51 -43q48 -50 76.5 -114.5t28.5 -139.5t-28.5 -139.5t-76.5 -114.5t-113 -78t-140 -28q-51 0 -97.5 13.5t-87.5 38.5l-63 -99h-26l71 111q-13 10 -25 20t-23 22
q-48 50 -77 114.5t-29 139.5zM712 350q0 70 -26.5 131t-71.5 107q-11 11 -23 21t-25 19l-363 -567q38 -23 81.5 -36t91.5 -13q70 0 131.5 27t106.5 73t71.5 107t26.5 131zM376 688q-69 0 -130 -27t-107 -73q-45 -46 -71.5 -107t-26.5 -131t26.5 -131t71.5 -107
q11 -11 22.5 -21t23.5 -18l364 566q-38 23 -81.5 36t-91.5 13z" />
    <glyph glyph-name="Ugrave" unicode="&#xd9;" horiz-adv-x="589" 
d="M294 -8q-44 0 -87.5 12.5t-79 37.5t-57.5 62.5t-22 86.5v509h22v-510q0 -44 20 -77t52.5 -55t72.5 -33t79 -11t79 11t72.5 33t52.5 55t20 78v509h22v-510q0 -49 -22.5 -86t-57.5 -62t-79 -37.5t-87 -12.5zM296 750l-69 80h30l63 -80h-24z" />
    <glyph glyph-name="Uacute" unicode="&#xda;" horiz-adv-x="589" 
d="M294 -8q-44 0 -87.5 12.5t-79 37.5t-57.5 62.5t-22 86.5v509h22v-510q0 -44 20 -77t52.5 -55t72.5 -33t79 -11t79 11t72.5 33t52.5 55t20 78v509h22v-510q0 -49 -22.5 -86t-57.5 -62t-79 -37.5t-87 -12.5zM262 748l65 80h30l-71 -80h-24z" />
    <glyph glyph-name="Ucircumflex" unicode="&#xdb;" horiz-adv-x="589" 
d="M294 -8q-44 0 -87.5 12.5t-79 37.5t-57.5 62.5t-22 86.5v509h22v-510q0 -44 20 -77t52.5 -55t72.5 -33t79 -11t79 11t72.5 33t52.5 55t20 78v509h22v-510q0 -49 -22.5 -86t-57.5 -62t-79 -37.5t-87 -12.5zM206 749l73 67h32l73 -67h-26l-63 52l-63 -52h-26z" />
    <glyph glyph-name="Udieresis" unicode="&#xdc;" horiz-adv-x="589" 
d="M294 -8q-44 0 -87.5 12.5t-79 37.5t-57.5 62.5t-22 86.5v509h22v-510q0 -44 20 -77t52.5 -55t72.5 -33t79 -11t79 11t72.5 33t52.5 55t20 78v509h22v-510q0 -49 -22.5 -86t-57.5 -62t-79 -37.5t-87 -12.5zM219 791q9 0 16 -7t7 -17q0 -8 -7 -15t-16 -7t-16.5 5.5
t-7.5 16.5q0 12 7.5 18t16.5 6zM375 791q9 0 16 -7t7 -17q0 -8 -7 -15t-16 -7t-16.5 5.5t-7.5 16.5q0 12 7.5 18t16.5 6z" />
    <glyph glyph-name="Yacute" unicode="&#xdd;" horiz-adv-x="539" 
d="M26 699l242 -387l242 387h27l-258 -411v-288h-22v288l-258 411h27zM240 745l65 80h30l-71 -80h-24z" />
    <glyph glyph-name="Thorn" unicode="&#xde;" horiz-adv-x="525" 
d="M45 700h22v-134h220q53 0 92.5 -19t66 -49.5t39.5 -70t13 -79.5q0 -41 -13 -80t-39.5 -69.5t-66 -49t-92.5 -18.5h-220v-131h-22v700zM287 152q48 0 83.5 16.5t59 44t35.5 62.5t12 72t-12 72t-35.5 63t-59 45t-83.5 17h-220v-392h220z" />
    <glyph glyph-name="germandbls" unicode="&#xdf;" horiz-adv-x="492" 
d="M297 377q42 -5 74 -24t53.5 -45.5t32 -57.5t10.5 -59q0 -64 -29.5 -106.5t-75.5 -65t-102 -25t-108 13.5v24q25 -10 43 -12.5t44 -2.5q51 0 89 14t64 37.5t39 54.5t13 66q0 33 -13 64t-39 56t-64.5 40.5t-88.5 15.5h-53v22h53q41 1 71 15.5t49 37t27.5 49.5t6.5 53
q0 34 -13.5 61t-36 45.5t-50.5 28t-58 9.5q-31 0 -61 -9t-54 -27t-38.5 -46.5t-14.5 -67.5v-538h-23v538q0 44 16 76.5t43 53.5t61.5 31t70.5 10q34 0 67 -11t58.5 -32t41 -52t15.5 -71q0 -9 -1.5 -31.5t-12.5 -47.5t-35.5 -48.5t-70.5 -35.5v-1z" />
    <glyph glyph-name="agrave" unicode="&#xe0;" horiz-adv-x="640" 
d="M297 544q88 0 154.5 -44.5t92.5 -130.5l-1 47v125h19v-541h-20v72l1 103q-26 -85 -91.5 -131.5t-154.5 -46.5q-48 0 -87 12.5t-69.5 34.5t-52.5 51.5t-35 63.5q-21 53 -21 111.5t21 111.5q13 34 35 63.5t52.5 51.5t69.5 34.5t87 12.5zM523 166q20 50 20 104.5t-20 104.5
q-12 31 -32.5 58.5t-48.5 47.5t-64.5 31.5t-80.5 11.5t-80 -11.5t-64.5 -31.5t-49 -47.5t-32.5 -58.5q-19 -50 -19 -104.5t19 -104.5q12 -32 32.5 -59t49 -47t64.5 -31.5t80 -11.5t80.5 11.5t64.5 31.5t48.5 47t32.5 59zM321 619l-69 80h30l63 -80h-24z" />
    <glyph glyph-name="aacute" unicode="&#xe1;" horiz-adv-x="640" 
d="M297 544q88 0 154.5 -44.5t92.5 -130.5l-1 47v125h19v-541h-20v72l1 103q-26 -85 -91.5 -131.5t-154.5 -46.5q-48 0 -87 12.5t-69.5 34.5t-52.5 51.5t-35 63.5q-21 53 -21 111.5t21 111.5q13 34 35 63.5t52.5 51.5t69.5 34.5t87 12.5zM523 166q20 50 20 104.5t-20 104.5
q-12 31 -32.5 58.5t-48.5 47.5t-64.5 31.5t-80.5 11.5t-80 -11.5t-64.5 -31.5t-49 -47.5t-32.5 -58.5q-19 -50 -19 -104.5t19 -104.5q12 -32 32.5 -59t49 -47t64.5 -31.5t80 -11.5t80.5 11.5t64.5 31.5t48.5 47t32.5 59zM300 622l65 80h30l-71 -80h-24z" />
    <glyph glyph-name="acircumflex" unicode="&#xe2;" horiz-adv-x="640" 
d="M297 544q88 0 154.5 -44.5t92.5 -130.5l-1 47v125h19v-541h-20v72l1 103q-26 -85 -91.5 -131.5t-154.5 -46.5q-48 0 -87 12.5t-69.5 34.5t-52.5 51.5t-35 63.5q-21 53 -21 111.5t21 111.5q13 34 35 63.5t52.5 51.5t69.5 34.5t87 12.5zM523 166q20 50 20 104.5t-20 104.5
q-12 31 -32.5 58.5t-48.5 47.5t-64.5 31.5t-80.5 11.5t-80 -11.5t-64.5 -31.5t-49 -47.5t-32.5 -58.5q-19 -50 -19 -104.5t19 -104.5q12 -32 32.5 -59t49 -47t64.5 -31.5t80 -11.5t80.5 11.5t64.5 31.5t48.5 47t32.5 59zM241 635l73 67h32l73 -67h-26l-63 52l-63 -52h-26z
" />
    <glyph glyph-name="atilde" unicode="&#xe3;" horiz-adv-x="640" 
d="M297 544q88 0 154.5 -44.5t92.5 -130.5l-1 47v125h19v-541h-20v72l1 103q-26 -85 -91.5 -131.5t-154.5 -46.5q-48 0 -87 12.5t-69.5 34.5t-52.5 51.5t-35 63.5q-21 53 -21 111.5t21 111.5q13 34 35 63.5t52.5 51.5t69.5 34.5t87 12.5zM523 166q20 50 20 104.5t-20 104.5
q-12 31 -32.5 58.5t-48.5 47.5t-64.5 31.5t-80.5 11.5t-80 -11.5t-64.5 -31.5t-49 -47.5t-32.5 -58.5q-19 -50 -19 -104.5t19 -104.5q12 -32 32.5 -59t49 -47t64.5 -31.5t80 -11.5t80.5 11.5t64.5 31.5t48.5 47t32.5 59zM240 649q2 15 11 26t22 16q20 8 34 2.5t25.5 -14.5
t22.5 -16.5t26 -1.5q18 8 24 30l17 -5q-8 -32 -34 -42q-19 -8 -33 -1.5t-26 15.5t-24 15.5t-27 -0.5q-7 -3 -13.5 -10t-8.5 -19z" />
    <glyph glyph-name="adieresis" unicode="&#xe4;" horiz-adv-x="640" 
d="M297 544q88 0 154.5 -44.5t92.5 -130.5l-1 47v125h19v-541h-20v72l1 103q-26 -85 -91.5 -131.5t-154.5 -46.5q-48 0 -87 12.5t-69.5 34.5t-52.5 51.5t-35 63.5q-21 53 -21 111.5t21 111.5q13 34 35 63.5t52.5 51.5t69.5 34.5t87 12.5zM523 166q20 50 20 104.5t-20 104.5
q-12 31 -32.5 58.5t-48.5 47.5t-64.5 31.5t-80.5 11.5t-80 -11.5t-64.5 -31.5t-49 -47.5t-32.5 -58.5q-19 -50 -19 -104.5t19 -104.5q12 -32 32.5 -59t49 -47t64.5 -31.5t80 -11.5t80.5 11.5t64.5 31.5t48.5 47t32.5 59zM259 698q9 0 16 -7t7 -17q0 -8 -7 -15t-16 -7
t-16.5 5.5t-7.5 16.5q0 12 7.5 18t16.5 6zM415 698q9 0 16 -7t7 -17q0 -8 -7 -15t-16 -7t-16.5 5.5t-7.5 16.5q0 12 7.5 18t16.5 6z" />
    <glyph glyph-name="aring" unicode="&#xe5;" horiz-adv-x="640" 
d="M297 544q88 0 154.5 -44.5t92.5 -130.5l-1 47v125h19v-541h-20v72l1 103q-26 -85 -91.5 -131.5t-154.5 -46.5q-48 0 -87 12.5t-69.5 34.5t-52.5 51.5t-35 63.5q-21 53 -21 111.5t21 111.5q13 34 35 63.5t52.5 51.5t69.5 34.5t87 12.5zM523 166q20 50 20 104.5t-20 104.5
q-12 31 -32.5 58.5t-48.5 47.5t-64.5 31.5t-80.5 11.5t-80 -11.5t-64.5 -31.5t-49 -47.5t-32.5 -58.5q-19 -50 -19 -104.5t19 -104.5q12 -32 32.5 -59t49 -47t64.5 -31.5t80 -11.5t80.5 11.5t64.5 31.5t48.5 47t32.5 59zM275 653q0 23 15.5 38t38.5 15t39.5 -15t16.5 -38
t-16.5 -37.5t-40.5 -14.5q-22 0 -37.5 15t-15.5 37zM293 653q0 -14 10.5 -24.5t25.5 -10.5q16 0 27 10.5t11 24.5q0 15 -11 25.5t-27 10.5q-15 0 -25.5 -10.5t-10.5 -25.5z" />
    <glyph glyph-name="ae" unicode="&#xe6;" horiz-adv-x="1102" 
d="M562 270q0 -27 4.5 -53.5t14.5 -51.5q12 -32 32.5 -59t48.5 -47t64.5 -31.5t80.5 -11.5q74 0 131.5 34t88.5 102h21q-32 -77 -95 -116.5t-146 -39.5q-97 0 -158 47t-88 126v-169h-19v72l1 103q-26 -85 -91.5 -131.5t-154.5 -46.5q-48 0 -87 12.5t-69.5 34.5t-52.5 51.5
t-35 63.5q-21 53 -21 111.5t21 111.5q13 34 35 63.5t52.5 51.5t69.5 34.5t87 12.5q88 0 154.5 -44.5t92.5 -130.5l-1 47v125h19v-160q13 34 35 63.5t53 51.5t70 34.5t87 12.5q59 0 108 -20.5t83.5 -57t53.5 -86.5t19 -109h-509zM523 166q20 50 20 104.5t-20 104.5
q-12 31 -32.5 58.5t-48.5 47.5t-64.5 31.5t-80.5 11.5t-80 -11.5t-64.5 -31.5t-49 -47.5t-32.5 -58.5q-19 -50 -19 -104.5t19 -104.5q12 -32 32.5 -59t49 -47t64.5 -31.5t80 -11.5t80.5 11.5t64.5 31.5t48.5 47t32.5 59zM1051 289q-3 52 -22 95t-51 74t-75.5 48t-95.5 17
q-44 0 -80.5 -11.5t-64.5 -31.5t-48.5 -47.5t-32.5 -58.5q-16 -39 -19 -83v-2h489z" />
    <glyph glyph-name="ccedilla" unicode="&#xe7;" horiz-adv-x="589" 
d="M297 -53q25 0 42.5 -7t27 -17.5t13 -23.5t1.5 -24q-5 -26 -27 -39t-54 -13q-14 0 -30 4t-33 14l3 17q14 -9 33.5 -12.5t38 -1.5t32 10.5t16.5 23.5t-5 26t-22 17.5t-31.5 9t-33.5 0.5q8 18 18 33.5t19 32.5q-48 0 -87 12.5t-69.5 34.5t-52.5 51.5t-35 63.5
q-20 54 -20 112q0 57 20 111q13 34 35.5 63.5t53 51.5t69.5 34.5t87 12.5q104 -2 165 -49.5t82 -128.5h-21q-20 73 -75.5 115t-150.5 43q-44 0 -80.5 -11.5t-64.5 -31.5t-48.5 -47.5t-32.5 -58.5q-10 -25 -14.5 -51.5t-4.5 -52.5q0 -27 4.5 -53.5t14.5 -51.5
q12 -32 32.5 -59t48.5 -47t64.5 -31.5t80.5 -11.5q87 0 146 38t81 124h21q-22 -90 -81 -133.5t-147 -47.5z" />
    <glyph glyph-name="egrave" unicode="&#xe8;" horiz-adv-x="591" 
d="M540 289q-3 52 -22 95t-51 74t-75.5 48t-95.5 17q-44 0 -80.5 -11.5t-64.5 -31.5t-48.5 -47.5t-32.5 -58.5q-16 -39 -19 -85h489zM51 270q0 -27 4.5 -53.5t14.5 -51.5q12 -32 32.5 -59t48.5 -47t64.5 -31.5t80.5 -11.5q74 0 131.5 34t88.5 102h21q-32 -77 -95 -116.5
t-146 -39.5q-48 0 -87 12.5t-70 34.5t-53 51.5t-35 63.5q-11 26 -15.5 54.5t-4.5 57.5t4.5 57t15.5 54q13 34 35 63.5t53 51.5t70 34.5t87 12.5q59 0 108 -20.5t83.5 -57t53.5 -86.5t19 -109h-509zM303 624l-69 80h30l63 -80h-24z" />
    <glyph glyph-name="eacute" unicode="&#xe9;" horiz-adv-x="591" 
d="M540 289q-3 52 -22 95t-51 74t-75.5 48t-95.5 17q-44 0 -80.5 -11.5t-64.5 -31.5t-48.5 -47.5t-32.5 -58.5q-16 -39 -19 -85h489zM51 270q0 -27 4.5 -53.5t14.5 -51.5q12 -32 32.5 -59t48.5 -47t64.5 -31.5t80.5 -11.5q74 0 131.5 34t88.5 102h21q-32 -77 -95 -116.5
t-146 -39.5q-48 0 -87 12.5t-70 34.5t-53 51.5t-35 63.5q-11 26 -15.5 54.5t-4.5 57.5t4.5 57t15.5 54q13 34 35 63.5t53 51.5t70 34.5t87 12.5q59 0 108 -20.5t83.5 -57t53.5 -86.5t19 -109h-509zM291 622l65 80h30l-71 -80h-24z" />
    <glyph glyph-name="ecircumflex" unicode="&#xea;" horiz-adv-x="591" 
d="M540 289q-3 52 -22 95t-51 74t-75.5 48t-95.5 17q-44 0 -80.5 -11.5t-64.5 -31.5t-48.5 -47.5t-32.5 -58.5q-16 -39 -19 -85h489zM51 270q0 -27 4.5 -53.5t14.5 -51.5q12 -32 32.5 -59t48.5 -47t64.5 -31.5t80.5 -11.5q74 0 131.5 34t88.5 102h21q-32 -77 -95 -116.5
t-146 -39.5q-48 0 -87 12.5t-70 34.5t-53 51.5t-35 63.5q-11 26 -15.5 54.5t-4.5 57.5t4.5 57t15.5 54q13 34 35 63.5t53 51.5t70 34.5t87 12.5q59 0 108 -20.5t83.5 -57t53.5 -86.5t19 -109h-509zM214 636l73 67h32l73 -67h-26l-63 52l-63 -52h-26z" />
    <glyph glyph-name="edieresis" unicode="&#xeb;" horiz-adv-x="591" 
d="M540 289q-3 52 -22 95t-51 74t-75.5 48t-95.5 17q-44 0 -80.5 -11.5t-64.5 -31.5t-48.5 -47.5t-32.5 -58.5q-16 -39 -19 -85h489zM51 270q0 -27 4.5 -53.5t14.5 -51.5q12 -32 32.5 -59t48.5 -47t64.5 -31.5t80.5 -11.5q74 0 131.5 34t88.5 102h21q-32 -77 -95 -116.5
t-146 -39.5q-48 0 -87 12.5t-70 34.5t-53 51.5t-35 63.5q-11 26 -15.5 54.5t-4.5 57.5t4.5 57t15.5 54q13 34 35 63.5t53 51.5t70 34.5t87 12.5q59 0 108 -20.5t83.5 -57t53.5 -86.5t19 -109h-509zM227 697q9 0 16 -7t7 -17q0 -8 -7 -15t-16 -7t-16.5 5.5t-7.5 16.5
q0 12 7.5 18t16.5 6zM383 697q9 0 16 -7t7 -17q0 -8 -7 -15t-16 -7t-16.5 5.5t-7.5 16.5q0 12 7.5 18t16.5 6z" />
    <glyph glyph-name="igrave" unicode="&#xec;" horiz-adv-x="172" 
d="M74 0v543h20v-543h-20zM73 621l-59 87h26l53 -87h-20z" />
    <glyph glyph-name="iacute" unicode="&#xed;" horiz-adv-x="172" 
d="M74 0v543h20v-543h-20zM76 618l57 83h27l-63 -83h-21z" />
    <glyph glyph-name="icircumflex" unicode="&#xee;" horiz-adv-x="172" 
d="M74 0v543h20v-543h-20zM7 633l64 70h28l64 -70h-23l-55 55l-55 -55h-23z" />
    <glyph glyph-name="idieresis" unicode="&#xef;" horiz-adv-x="172" 
d="M42 692q9 0 15.5 -6.5t6.5 -15.5q0 -8 -6.5 -14.5t-15.5 -6.5q-8 0 -15 5t-7 16t7 16.5t15 5.5zM132 692q8 0 15 -6.5t7 -15.5q0 -8 -7 -14.5t-15 -6.5t-15 5t-7 16t7 16.5t15 5.5zM74 0v543h20v-543h-20z" />
    <glyph glyph-name="eth" unicode="&#xf0;" 
d="M309 -3q-85 -1 -150 40.5t-97 121.5q-21 54 -21 112t21 112q31 79 96.5 121t150.5 41q43 1 81.5 -10.5t71.5 -37.5l-98 134l-82 -48v20l71 42l-40 57h24l33 -47l90 53v-21l-79 -46l143 -198q9 -13 17 -27.5t16 -32.5q11 -27 15.5 -55t4.5 -57t-4.5 -57t-15.5 -55
q-32 -80 -97 -121.5t-151 -40.5zM80 375q-19 -52 -19 -104q0 -27 5 -53.5t14 -50.5q29 -75 89.5 -113.5t139.5 -37.5q79 -1 139.5 37.5t89.5 113.5q10 24 14.5 50.5t4.5 53.5q0 56 -19 104q-29 75 -89.5 113t-139.5 38t-139.5 -38t-89.5 -113z" />
    <glyph glyph-name="ntilde" unicode="&#xf1;" horiz-adv-x="626" 
d="M78 0v541h20l-1 -149q14 49 43 80q33 36 78.5 53t94.5 17q57 0 101 -18.5t74 -52t45.5 -79.5t15.5 -101v-291h-20v291q0 51 -14 93.5t-41 73t-67.5 47.5t-94.5 17q-44 0 -85.5 -15.5t-72.5 -48.5q-25 -27 -39.5 -66.5t-15.5 -94.5v-297h-21zM227 656q2 15 11 26t22 16
q20 8 34 2.5t25.5 -14.5t22.5 -16.5t26 -1.5q18 8 24 30l17 -5q-8 -32 -34 -42q-19 -8 -33 -1.5t-26 15.5t-24 15.5t-27 -0.5q-7 -3 -13.5 -10t-8.5 -19z" />
    <glyph glyph-name="ograve" unicode="&#xf2;" 
d="M80 375q-19 -52 -19 -104q0 -27 5 -53.5t14 -50.5q29 -75 89.5 -113.5t139.5 -37.5q79 -1 139.5 37.5t89.5 113.5q10 24 14.5 50.5t4.5 53.5q0 56 -19 104q-29 75 -89.5 113t-139.5 38t-139.5 -38t-89.5 -113zM309 -3q-85 -1 -150 40.5t-97 121.5q-21 54 -21 112t21 112
q31 79 96.5 121t150.5 41q85 1 150.5 -41t97.5 -121q11 -27 15.5 -55t4.5 -57t-4.5 -57t-15.5 -55q-32 -80 -97 -121.5t-151 -40.5zM313 620l-69 80h30l63 -80h-24z" />
    <glyph glyph-name="oacute" unicode="&#xf3;" 
d="M80 375q-19 -52 -19 -104q0 -27 5 -53.5t14 -50.5q29 -75 89.5 -113.5t139.5 -37.5q79 -1 139.5 37.5t89.5 113.5q10 24 14.5 50.5t4.5 53.5q0 56 -19 104q-29 75 -89.5 113t-139.5 38t-139.5 -38t-89.5 -113zM309 -3q-85 -1 -150 40.5t-97 121.5q-21 54 -21 112t21 112
q31 79 96.5 121t150.5 41q85 1 150.5 -41t97.5 -121q11 -27 15.5 -55t4.5 -57t-4.5 -57t-15.5 -55q-32 -80 -97 -121.5t-151 -40.5zM299 618l65 80h30l-71 -80h-24z" />
    <glyph glyph-name="ocircumflex" unicode="&#xf4;" 
d="M80 375q-19 -52 -19 -104q0 -27 5 -53.5t14 -50.5q29 -75 89.5 -113.5t139.5 -37.5q79 -1 139.5 37.5t89.5 113.5q10 24 14.5 50.5t4.5 53.5q0 56 -19 104q-29 75 -89.5 113t-139.5 38t-139.5 -38t-89.5 -113zM309 -3q-85 -1 -150 40.5t-97 121.5q-21 54 -21 112t21 112
q31 79 96.5 121t150.5 41q85 1 150.5 -41t97.5 -121q11 -27 15.5 -55t4.5 -57t-4.5 -57t-15.5 -55q-32 -80 -97 -121.5t-151 -40.5zM236 635l73 67h32l73 -67h-26l-63 52l-63 -52h-26z" />
    <glyph glyph-name="otilde" unicode="&#xf5;" 
d="M80 375q-19 -52 -19 -104q0 -27 5 -53.5t14 -50.5q29 -75 89.5 -113.5t139.5 -37.5q79 -1 139.5 37.5t89.5 113.5q10 24 14.5 50.5t4.5 53.5q0 56 -19 104q-29 75 -89.5 113t-139.5 38t-139.5 -38t-89.5 -113zM309 -3q-85 -1 -150 40.5t-97 121.5q-21 54 -21 112t21 112
q31 79 96.5 121t150.5 41q85 1 150.5 -41t97.5 -121q11 -27 15.5 -55t4.5 -57t-4.5 -57t-15.5 -55q-32 -80 -97 -121.5t-151 -40.5zM225 655q2 15 11 26t22 16q20 8 34 2.5t25.5 -14.5t22.5 -16.5t26 -1.5q18 8 24 30l17 -5q-8 -32 -34 -42q-19 -8 -33 -1.5t-26 15.5
t-24 15.5t-27 -0.5q-7 -3 -13.5 -10t-8.5 -19z" />
    <glyph glyph-name="odieresis" unicode="&#xf6;" 
d="M80 375q-19 -52 -19 -104q0 -27 5 -53.5t14 -50.5q29 -75 89.5 -113.5t139.5 -37.5q79 -1 139.5 37.5t89.5 113.5q10 24 14.5 50.5t4.5 53.5q0 56 -19 104q-29 75 -89.5 113t-139.5 38t-139.5 -38t-89.5 -113zM309 -3q-85 -1 -150 40.5t-97 121.5q-21 54 -21 112t21 112
q31 79 96.5 121t150.5 41q85 1 150.5 -41t97.5 -121q11 -27 15.5 -55t4.5 -57t-4.5 -57t-15.5 -55q-32 -80 -97 -121.5t-151 -40.5zM237 699q9 0 16 -7t7 -17q0 -8 -7 -15t-16 -7t-16.5 5.5t-7.5 16.5q0 12 7.5 18t16.5 6zM393 699q9 0 16 -7t7 -17q0 -8 -7 -15t-16 -7
t-16.5 5.5t-7.5 16.5q0 12 7.5 18t16.5 6z" />
    <glyph glyph-name="divide" unicode="&#xf7;" horiz-adv-x="471" 
d="M18 366h418v-21h-418v21zM230 216q9 0 16 -7t7 -17q0 -8 -7 -15t-16 -7t-16.5 5.5t-7.5 16.5q0 12 7.5 18t16.5 6zM230 530q9 0 16 -7t7 -17q0 -8 -7 -15t-16 -7t-16.5 5.5t-7.5 16.5q0 12 7.5 18t16.5 6z" />
    <glyph glyph-name="oslash" unicode="&#xf8;" 
d="M309 -3q-73 0 -129 28l-46 -81h-22l52 91q-69 41 -102 124q-21 54 -21 112t21 112q31 79 96.5 121t150.5 41q73 0 130 -30l47 82h21l-52 -91q69 -41 102 -123q11 -27 15.5 -55t4.5 -57t-4.5 -57t-15.5 -55q-32 -80 -97 -121.5t-151 -40.5zM80 375q-19 -52 -19 -104
q0 -27 5 -53.5t14 -50.5q30 -76 93 -116l256 447q-54 28 -120 28q-79 0 -139.5 -38t-89.5 -113zM309 16q79 -1 139.5 37.5t89.5 113.5q10 24 14.5 50.5t4.5 53.5q0 56 -19 104q-30 75 -93 114l-255 -447q53 -27 119 -26z" />
    <glyph glyph-name="ugrave" unicode="&#xf9;" horiz-adv-x="620" 
d="M543 541v-541h-20l1 149q-14 -49 -42 -80q-34 -36 -79.5 -53t-93.5 -17q-58 0 -102 18.5t-74 52t-45.5 79.5t-15.5 101v291h20v-291q0 -51 14 -93.5t41 -73t67.5 -47.5t94.5 -17q45 0 86 15.5t72 48.5q25 27 40 66.5t16 94.5v297h20zM317 622l-69 80h30l63 -80h-24z" />
    <glyph glyph-name="uacute" unicode="&#xfa;" horiz-adv-x="620" 
d="M543 541v-541h-20l1 149q-14 -49 -42 -80q-34 -36 -79.5 -53t-93.5 -17q-58 0 -102 18.5t-74 52t-45.5 79.5t-15.5 101v291h20v-291q0 -51 14 -93.5t41 -73t67.5 -47.5t94.5 -17q45 0 86 15.5t72 48.5q25 27 40 66.5t16 94.5v297h20zM284 619l65 80h30l-71 -80h-24z" />
    <glyph glyph-name="ucircumflex" unicode="&#xfb;" horiz-adv-x="620" 
d="M543 541v-541h-20l1 149q-14 -49 -42 -80q-34 -36 -79.5 -53t-93.5 -17q-58 0 -102 18.5t-74 52t-45.5 79.5t-15.5 101v291h20v-291q0 -51 14 -93.5t41 -73t67.5 -47.5t94.5 -17q45 0 86 15.5t72 48.5q25 27 40 66.5t16 94.5v297h20zM221 635l73 67h32l73 -67h-26l-63 52
l-63 -52h-26z" />
    <glyph glyph-name="udieresis" unicode="&#xfc;" horiz-adv-x="620" 
d="M543 541v-541h-20l1 149q-14 -49 -42 -80q-34 -36 -79.5 -53t-93.5 -17q-58 0 -102 18.5t-74 52t-45.5 79.5t-15.5 101v291h20v-291q0 -51 14 -93.5t41 -73t67.5 -47.5t94.5 -17q45 0 86 15.5t72 48.5q25 27 40 66.5t16 94.5v297h20zM242 700q9 0 16 -7t7 -17
q0 -8 -7 -15t-16 -7t-16.5 5.5t-7.5 16.5q0 12 7.5 18t16.5 6zM398 700q9 0 16 -7t7 -17q0 -8 -7 -15t-16 -7t-16.5 5.5t-7.5 16.5q0 12 7.5 18t16.5 6z" />
    <glyph glyph-name="yacute" unicode="&#xfd;" horiz-adv-x="504" 
d="M33 541l218 -521l230 521h22l-321 -730h-22l80 186l-229 544h22zM237 622l65 80h30l-71 -80h-24z" />
    <glyph glyph-name="thorn" unicode="&#xfe;" horiz-adv-x="653" 
d="M343 -3q-88 0 -154.5 44.5t-91.5 130.5l1 -330h-20v859h20v-232l-1 -103q26 85 91.5 132t154.5 47q48 0 87 -12.5t69.5 -34.5t52.5 -52t36 -64q20 -53 20 -111.5t-20 -111.5q-14 -34 -36 -63.5t-52.5 -51.5t-69.5 -34.5t-87 -12.5zM117 375q-20 -50 -20 -104.5t20 -104.5
q12 -32 32.5 -59t48.5 -47t64.5 -31.5t80.5 -11.5t80.5 11.5t64.5 31.5t48.5 47t32.5 59q20 50 20 104.5t-20 104.5q-12 31 -32.5 58.5t-48.5 47.5t-64.5 31.5t-80.5 11.5t-80.5 -11.5t-64.5 -31.5t-48.5 -47.5t-32.5 -58.5z" />
    <glyph glyph-name="ydieresis" unicode="&#xff;" horiz-adv-x="504" 
d="M33 541l218 -521l230 521h22l-321 -730h-22l80 186l-229 544h22zM185 698q8 0 15 -7t7 -16q0 -8 -7 -14.5t-15 -6.5q-9 0 -16 5.5t-7 15.5q0 11 7 17t16 6zM334 698q8 0 15 -7t7 -16q0 -8 -7 -14.5t-15 -6.5q-9 0 -16 5.5t-7 15.5q0 11 7 17t16 6z" />
    <glyph glyph-name="OE" unicode="&#x152;" horiz-adv-x="839" 
d="M452 19h369v-21h-378q-16 -3 -33.5 -4.5t-34.5 -1.5q-75 0 -139.5 23.5t-112.5 73.5t-76.5 118t-28.5 143q0 79 28.5 146t76.5 117t112.5 72.5t139.5 22.5q14 0 29.5 -1.5t29.5 -3.5h385v-21h-367v-321h359v-22h-359v-320zM375 686q-70 0 -131 -21.5t-106 -67.5t-72 -109
t-27 -138q0 -70 27 -134.5t72 -110.5t106 -68.5t131 -22.5q14 0 27.5 0.5t27.5 2.5v665q-14 2 -27.5 3t-27.5 1z" />
    <glyph glyph-name="oe" unicode="&#x153;" horiz-adv-x="1117" 
d="M309 -3q-85 -1 -150 40.5t-97 121.5q-21 54 -21 112t21 112q31 79 96.5 121t150.5 41q85 1 150.5 -41t97.5 -121q3 -8 6 -22t4 -25q1 11 4 24t6 21q13 34 35 63.5t53 51.5t70 34.5t87 12.5q59 0 108 -20.5t83.5 -57t53.5 -86.5t19 -109h-509v-11q2 -52 19 -94
q12 -32 32.5 -59t48.5 -47t64.5 -31.5t80.5 -11.5q74 0 131.5 34t88.5 102h21q-32 -77 -95 -116.5t-146 -39.5q-48 0 -87 12.5t-70 34.5t-53 51.5t-35 63.5q-3 8 -5.5 18.5t-4.5 23.5q-2 -11 -4.5 -22.5t-5.5 -18.5q-32 -80 -97 -121.5t-151 -40.5zM80 375q-19 -52 -19 -104
q0 -27 5 -53.5t14 -50.5q29 -75 89.5 -113.5t139.5 -37.5q79 -1 139.5 37.5t89.5 113.5q10 23 14.5 49.5t4.5 53.5v12q-1 24 -6 47t-13 46q-29 75 -89.5 113t-139.5 38t-139.5 -38t-89.5 -113zM1066 289q-3 52 -22 95t-51 74t-75.5 48t-95.5 17q-44 0 -80.5 -11.5
t-64.5 -31.5t-48.5 -47.5t-32.5 -58.5q-16 -39 -19 -85h489z" />
    <glyph glyph-name="Scaron" unicode="&#x160;" horiz-adv-x="549" 
d="M478 550q-5 20 -14 40t-23 35q-31 32 -78.5 47.5t-92.5 14.5q-49 -1 -99 -19.5t-81 -58.5q-18 -23 -24.5 -49.5t-4.5 -54.5q3 -44 24 -70t52.5 -41t69.5 -21.5t76 -10.5q37 -4 75 -10t70.5 -19.5t55.5 -37.5t32 -64q5 -23 5 -43q0 -47 -22 -83t-57 -61t-79.5 -38
t-89.5 -13q-38 0 -78.5 11t-74.5 32.5t-58 54t-28 75.5l-1 9l22 2l1 -9q5 -38 26.5 -66.5t52.5 -48t67.5 -29.5t71.5 -10q40 0 80.5 11.5t72 34t51.5 55t20 74.5q0 8 -1 17.5t-3 19.5q-8 34 -29 55t-51 33t-65 17.5t-70 9.5q-40 4 -81 11t-75 23.5t-56.5 47t-26.5 81.5
q-2 29 6 60.5t28 57.5q33 43 87.5 64.5t114.5 21.5q39 0 76 -9.5t67 -28.5t51.5 -47.5t28.5 -67.5l2 -12l-21 -3zM368 828l-73 -67h-32l-73 67h26l63 -52l63 52h26z" />
    <glyph glyph-name="scaron" unicode="&#x161;" horiz-adv-x="534" 
d="M449 397q0 46 -32 75.5t-79 43.5q-39 11 -78 11q-20 0 -39.5 -2.5t-37.5 -7.5q-45 -13 -75 -42t-30 -76q0 -32 16 -51.5t42 -31t60 -17t69 -9.5q40 -5 79 -11.5t69.5 -20.5t49 -39.5t18.5 -68.5q0 -56 -36 -92t-89 -52q-42 -12 -87 -11q-22 0 -44 3t-43 10
q-28 8 -52.5 22t-42.5 34t-28.5 45.5t-10.5 56.5h20q0 -54 34.5 -89t84.5 -50q39 -12 83 -12q40 -1 81 11q47 14 78.5 45t31.5 79q0 36 -17 57.5t-45 34t-63.5 18t-72.5 10.5q-39 5 -76 11t-66 19.5t-46.5 36.5t-17.5 62q0 54 34.5 88.5t85.5 48.5q20 6 41 8.5t42 2.5
q42 0 83 -11q27 -8 50 -20.5t40 -30t26.5 -39.5t9.5 -49h-20zM364 694l-73 -67h-32l-73 67h26l63 -52l63 52h26z" />
    <glyph glyph-name="Ydieresis" unicode="&#x178;" horiz-adv-x="539" 
d="M26 699l242 -387l242 387h27l-258 -411v-288h-22v288l-258 411h27zM191 788q9 0 16 -7t7 -17q0 -8 -7 -15t-16 -7t-16.5 5.5t-7.5 16.5q0 12 7.5 18t16.5 6zM347 788q9 0 16 -7t7 -17q0 -8 -7 -15t-16 -7t-16.5 5.5t-7.5 16.5q0 12 7.5 18t16.5 6z" />
    <glyph glyph-name="Zcaron" unicode="&#x17d;" horiz-adv-x="553" 
d="M15 28l494 650h-479v22h501v-29l-494 -650h502v-21h-524v28zM386 822l-73 -67h-32l-73 67h26l63 -52l63 52h26z" />
    <glyph glyph-name="zcaron" unicode="&#x17e;" horiz-adv-x="427" 
d="M23 541h389v-26l-379 -495h381v-20h-402v26l380 496h-369v19zM315 695l-73 -67h-32l-73 67h26l63 -52l63 52h26z" />
    <glyph glyph-name="florin" unicode="&#x192;" horiz-adv-x="425" 
d="M409 684q-33 0 -56 -9t-39 -28t-26 -48t-16 -67l-12 -65h113l-4 -17h-112l-95 -494q-6 -30 -17.5 -58t-31 -49t-48.5 -33.5t-70 -12.5h-18l3 19h17q34 0 58.5 10.5t42 29.5t27.5 43.5t16 53.5l95 491h-95l4 17h94l12 64q8 52 21.5 86t33 53t45 26t58.5 7v-19z" />
    <glyph glyph-name="circumflex" unicode="&#x2c6;" horiz-adv-x="291" 
d="M58 723l73 67h32l73 -67h-26l-63 52l-63 -52h-26z" />
    <glyph glyph-name="tilde" unicode="&#x2dc;" horiz-adv-x="258" 
d="M40 724q2 15 11 26t22 16q20 8 34 2.5t25.5 -14.5t22.5 -16.5t26 -1.5q18 8 24 30l17 -5q-8 -32 -34 -42q-19 -8 -33 -1.5t-26 15.5t-24 15.5t-27 -0.5q-7 -3 -13.5 -10t-8.5 -19z" />
    <glyph glyph-name="endash" unicode="&#x2013;" horiz-adv-x="579" 
d="M48 367h478v-21h-478v21z" />
    <glyph glyph-name="emdash" unicode="&#x2014;" horiz-adv-x="768" 
d="M53 364h669v-21h-669v21z" />
    <glyph glyph-name="quoteleft" unicode="&#x2018;" horiz-adv-x="160" 
d="M118 702l-47 -130h-32l55 130h24z" />
    <glyph glyph-name="quoteright" unicode="&#x2019;" horiz-adv-x="157" 
d="M41 572l47 130h29l-54 -130h-22z" />
    <glyph glyph-name="quotesinglbase" unicode="&#x201a;" horiz-adv-x="180" 
d="M81 43h30l-60 -155h-23z" />
    <glyph glyph-name="quotedblleft" unicode="&#x201c;" horiz-adv-x="250" 
d="M118 702l-47 -130h-32l55 130h24zM208 702l-47 -130h-32l55 130h24z" />
    <glyph glyph-name="quotedblright" unicode="&#x201d;" horiz-adv-x="243" 
d="M128 572l47 130h32l-55 -130h-24zM38 572l47 130h32l-55 -130h-24z" />
    <glyph glyph-name="quotedblbase" unicode="&#x201e;" horiz-adv-x="257" 
d="M86 43h27l-61 -155h-19zM165 43h27l-61 -155h-19z" />
    <glyph glyph-name="dagger" unicode="&#x2020;" horiz-adv-x="449" 
d="M211 458h-199v19h199v222h20v-222h201v-19h-201v-500h-20v500z" />
    <glyph glyph-name="daggerdbl" unicode="&#x2021;" horiz-adv-x="441" 
d="M226 202h188v-19h-188v-225h-20v225h-183v19h183v259h-179v19h179v218h20v-218h194v-19h-194v-259z" />
    <glyph glyph-name="bullet" unicode="&#x2022;" horiz-adv-x="262" 
d="M127 257q-33 0 -55 22.5t-22 55.5t22 56t55 23q32 0 54.5 -23t22.5 -56t-22.5 -55.5t-54.5 -22.5z" />
    <glyph glyph-name="ellipsis" unicode="&#x2026;" horiz-adv-x="370" 
d="M66 42q23 0 23 -23q0 -8 -6 -14.5t-17 -6.5q-9 0 -14.5 6.5t-5.5 14.5q0 23 20 23zM182 42q23 0 23 -23q0 -8 -6 -14.5t-17 -6.5q-9 0 -15 6.5t-6 14.5q0 11 6 17t15 6zM296 42q22 0 22 -23q0 -8 -6 -14.5t-16 -6.5q-9 0 -15 6.5t-6 14.5q0 11 6 17t15 6z" />
    <glyph glyph-name="perthousand" unicode="&#x2030;" horiz-adv-x="978" 
d="M334 560q0 -30 -11.5 -56t-31 -45.5t-45.5 -31t-55 -11.5t-55 11t-45.5 30.5t-31 45.5t-11.5 57t11.5 57.5t31 46t45.5 30.5t55 11t55 -11t45.5 -30.5t31 -46t11.5 -57.5zM568 716l-460 -727h-24l461 727h23zM314 560q0 27 -9 50t-25.5 40t-39 26.5t-49.5 9.5
q-26 0 -48.5 -9.5t-39 -26.5t-25.5 -40t-9 -50q0 -26 9 -48.5t25.5 -39.5t39 -27t48.5 -10q27 0 49.5 10t39 27t25.5 39.5t9 48.5zM612 138q0 -30 -11.5 -56t-31 -45.5t-45.5 -31t-55 -11.5t-55 11t-45.5 30.5t-31 45.5t-11.5 57t11.5 57.5t31 46t45.5 30.5t55 11t55 -11
t45.5 -30.5t31 -46t11.5 -57.5zM592 138q0 27 -9 50t-25.5 40t-39 26.5t-49.5 9.5q-26 0 -48.5 -9.5t-39 -26.5t-25.5 -40t-9 -50q0 -26 9 -48.5t25.5 -39.5t39 -27t48.5 -10q27 0 49.5 10t39 27t25.5 39.5t9 48.5zM937 138q0 -30 -11.5 -56t-31 -45.5t-45.5 -31t-55 -11.5
t-55 11t-45.5 30.5t-31 45.5t-11.5 57t11.5 57.5t31 46t45.5 30.5t55 11t55 -11t45.5 -30.5t31 -46t11.5 -57.5zM917 138q0 27 -9 50t-25.5 40t-39 26.5t-49.5 9.5q-26 0 -48.5 -9.5t-39 -26.5t-25.5 -40t-9 -50q0 -26 9 -48.5t25.5 -39.5t39 -27t48.5 -10q27 0 49.5 10
t39 27t25.5 39.5t9 48.5z" />
    <glyph glyph-name="guilsinglleft" unicode="&#x2039;" horiz-adv-x="245" 
d="M25 342l157 196h27l-157 -196l157 -193h-27z" />
    <glyph glyph-name="guilsinglright" unicode="&#x203a;" horiz-adv-x="250" 
d="M67 147h-27l157 193l-157 196h27l155 -196z" />
    <glyph glyph-name="Euro" unicode="&#x20ac;" horiz-adv-x="718" 
d="M3 330h46v41h-46v20h48q5 60 31 110t66 92q48 48 109 75.5t133 27.5q71 0 132 -27.5t109 -75.5q23 -24 41.5 -52.5t32.5 -60.5h-24q-12 29 -28.5 53t-36.5 45q-43 45 -101.5 70.5t-124.5 25.5t-124.5 -25.5t-102.5 -70.5q-37 -38 -61.5 -84.5t-30.5 -102.5h180v-20h-182
v-41h182v-20h-181q6 -57 30.5 -105.5t62.5 -86.5q44 -45 102.5 -71t124.5 -26t124.5 26t101.5 71q41 40 65 96h24q-27 -64 -74 -112q-48 -48 -109 -75.5t-132 -27.5q-72 0 -133 27.5t-109 75.5q-40 42 -66 93.5t-32 114.5h-47v20z" />
    <glyph glyph-name="trademark" unicode="&#x2122;" horiz-adv-x="835" 
d="M181 683v-384h-21v384h-140v17h304v-17h-143zM403 687h-1v-388h-20v401h37l157 -288l157 288h39v-401h-22v388h-1l-162 -297h-22z" />
    </font>
</defs>
</svg>
